<svg width="41" height="44" viewBox="0 0 41 44" fill="none" xmlns="http://www.w3.org/2000/svg">
<mask id="path-1-outside-1_812_35021" maskUnits="userSpaceOnUse" x="0" y="0" width="41" height="44" fill="black">
<rect fill="white" width="41" height="44"/>
<path d="M20.6452 31.4838C15.4155 31.4838 11.1613 27.2296 11.1613 21.9999C11.1613 16.7702 15.4155 12.516 20.6452 12.516C25.8749 12.516 30.1292 16.7702 30.1292 21.9999C30.1292 27.2296 25.8749 31.4838 20.6452 31.4838ZM20.6452 13.1934C15.7895 13.1934 11.8388 17.1442 11.8388 21.9999C11.8388 26.8557 15.7895 30.8064 20.6452 30.8064C25.501 30.8064 29.4517 26.8557 29.4517 21.9999C29.4517 17.1442 25.501 13.1934 20.6452 13.1934ZM13.533 40.2876C13.491 40.2876 13.449 40.2802 13.4083 40.2639C12.9985 40.102 12.5954 39.9259 12.2005 39.7375C12.0311 39.6569 11.96 39.4551 12.0406 39.2857C12.1212 39.117 12.3238 39.0452 12.4918 39.1258C12.8732 39.3081 13.262 39.4774 13.6576 39.6339C13.8317 39.703 13.9171 39.8994 13.848 40.0735C13.7958 40.2063 13.6678 40.2876 13.533 40.2876Z"/>
<path d="M15.5646 40.9677C15.3776 40.9677 15.2259 40.816 15.2259 40.629V38.0467C8.32632 35.7204 3.70969 29.3032 3.70969 21.9999C3.70969 17.4138 5.51299 13.1196 8.78765 9.90795C12.061 6.69697 16.3741 4.98716 20.9826 5.06709C21.0639 5.06845 21.1418 5.09961 21.2028 5.1538C21.2739 5.21883 21.3227 5.31842 21.3227 5.41461V5.94029L23.2147 4.04825L21.3227 2.15621V2.70221C21.3227 2.79299 21.2861 2.88037 21.2217 2.94337C21.1567 3.00705 21.0551 3.03415 20.9785 3.04092L20.6452 3.03212C10.1865 3.03212 1.67742 11.5412 1.67742 21.9999C1.67742 28.638 5.22305 34.8797 10.931 38.2899C11.0909 38.3861 11.1437 38.5941 11.0482 38.7546C10.9527 38.9151 10.744 38.9666 10.5828 38.8718C4.67231 35.3397 1 28.8751 1 21.9999C1 11.1673 9.81326 2.35469 20.6452 2.35469V1.33856C20.6452 1.20172 20.7279 1.07775 20.8546 1.02559C20.9812 0.973432 21.1269 1.00256 21.2238 1.09876L23.9335 3.80844C24.0656 3.94054 24.0656 4.15528 23.9335 4.28738L21.2238 6.99707C21.1269 7.09394 20.9806 7.12307 20.8546 7.07023C20.7279 7.01874 20.6452 6.89478 20.6452 6.75794V5.7418H20.6425C16.3572 5.7418 12.3272 7.38591 9.26184 10.3916C6.1186 13.4753 4.38711 17.5974 4.38711 21.9999C4.38711 29.0898 8.92042 35.3106 15.6682 37.479C15.8078 37.5244 15.9033 37.6545 15.9033 37.8015V40.629C15.9033 40.816 15.7515 40.9677 15.5646 40.9677ZM20.3065 43C20.2185 43 20.1318 42.9655 20.0667 42.9011L17.357 40.1914C17.2249 40.0593 17.2249 39.8446 17.357 39.7125L20.0667 37.0028C20.1636 36.9059 20.3099 36.8768 20.4359 36.9296C20.5626 36.9811 20.6452 37.1051 20.6452 37.2419V38.258H20.648C24.9333 38.258 28.9633 36.6139 32.0287 33.6082C35.1719 30.5246 36.9034 26.4025 36.9034 21.9999C36.9034 14.9094 32.3701 8.68859 25.6223 6.52084C25.4827 6.47545 25.3872 6.34539 25.3872 6.19839V3.37083C25.3872 3.18386 25.5389 3.03212 25.7259 3.03212C25.9129 3.03212 26.0646 3.18386 26.0646 3.37083V5.95316C32.9642 8.27943 37.5808 14.6966 37.5808 21.9999C37.5808 26.5861 35.7775 30.8802 32.5028 34.0919C29.2295 37.3022 24.913 39.0093 20.3079 38.9328C20.2266 38.9314 20.1487 38.9002 20.0877 38.8461C20.0166 38.781 19.9678 38.6814 19.9678 38.5852V38.0596L18.0758 39.9516L19.9678 41.8436V41.2976C19.9678 41.2069 20.0044 41.1195 20.0688 41.0565C20.1338 40.9921 20.209 40.9488 20.312 40.9589L20.6452 40.9677C31.104 40.9677 39.6131 32.4586 39.6131 21.9999C39.6131 15.3619 36.0674 9.12011 30.3595 5.70996C30.1996 5.61377 30.1468 5.4058 30.2423 5.24525C30.3385 5.08403 30.5458 5.03322 30.7077 5.12806C36.6182 8.66014 40.2905 15.1248 40.2905 21.9999C40.2905 32.8326 31.4772 41.6452 20.6452 41.6452V42.6613C20.6452 42.7981 20.5626 42.9221 20.4359 42.9743C20.3946 42.9919 20.3499 43 20.3065 43Z"/>
<path d="M28.9443 4.90722C28.8956 4.90722 28.8454 4.89638 28.7987 4.87403C28.4173 4.6918 28.0285 4.52244 27.6329 4.36596C27.4588 4.29686 27.3734 4.10041 27.4425 3.92631C27.5116 3.75222 27.7108 3.66754 27.8815 3.73596C28.2913 3.89786 28.6944 4.07399 29.0893 4.26231C29.2587 4.34293 29.3298 4.5448 29.2492 4.71415C29.1916 4.83609 29.0703 4.90722 28.9443 4.90722ZM21.6614 29.4516H19.6291C19.4421 29.4516 19.2904 29.2998 19.2904 29.1129V27.4193H16.9194C16.7325 27.4193 16.5807 27.2676 16.5807 27.0806V25.0483C16.5807 24.8614 16.7325 24.7096 16.9194 24.7096H22.0001V23.3548H16.9194C16.7325 23.3548 16.5807 23.203 16.5807 23.0161V16.9193C16.5807 16.7323 16.7325 16.5806 16.9194 16.5806H19.2904V14.887C19.2904 14.7 19.4421 14.5483 19.6291 14.5483H21.6614C21.8483 14.5483 22.0001 14.7 22.0001 14.887V16.5806H24.3711C24.558 16.5806 24.7098 16.7323 24.7098 16.9193V18.9515C24.7098 19.1385 24.558 19.2902 24.3711 19.2902H19.2904V20.6451H24.3711C24.558 20.6451 24.7098 20.7968 24.7098 20.9838V27.0806C24.7098 27.2676 24.558 27.4193 24.3711 27.4193H22.0001V29.1129C22.0001 29.2998 21.8483 29.4516 21.6614 29.4516ZM19.9678 28.7741H21.3227V27.0806C21.3227 26.8936 21.4744 26.7419 21.6614 26.7419H24.0324V21.3225H18.9517C18.7647 21.3225 18.613 21.1708 18.613 20.9838V18.9515C18.613 18.7646 18.7647 18.6128 18.9517 18.6128H24.0324V17.258H21.6614C21.4744 17.258 21.3227 17.1062 21.3227 16.9193V15.2257H19.9678V16.9193C19.9678 17.1062 19.8161 17.258 19.6291 17.258H17.2581V22.6773H22.3388C22.5258 22.6773 22.6775 22.8291 22.6775 23.0161V25.0483C22.6775 25.2353 22.5258 25.387 22.3388 25.387H17.2581V26.7419H19.6291C19.8161 26.7419 19.9678 26.8936 19.9678 27.0806V28.7741Z"/>
<path d="M20.6452 36.2298C20.5585 36.2298 20.4718 36.1967 20.4054 36.1309L18.2289 33.9551L15.379 35.1155C15.2956 35.1494 15.2028 35.1487 15.1195 35.1141C15.0369 35.0789 14.9712 35.0132 14.9373 34.9299L13.8114 32.1613H10.8226C10.6357 32.1613 10.4839 32.0095 10.4839 31.8225V28.7457L7.64754 27.5507C7.5649 27.5155 7.49919 27.4498 7.46532 27.3665C7.43145 27.2831 7.43145 27.1903 7.46667 27.107L8.6271 24.3533L6.51422 22.2397C6.38212 22.1076 6.38212 21.8929 6.51422 21.7608L8.6901 19.5849L7.52967 16.7343C7.45922 16.5609 7.54254 16.3638 7.71529 16.2933L10.4839 15.1661V12.1773C10.4839 11.9903 10.6357 11.8386 10.8226 11.8386H13.9002L15.0951 9.00223C15.1304 8.91959 15.1961 8.85388 15.2794 8.82001C15.3627 8.78614 15.4555 8.78681 15.5388 8.82136L18.2919 9.98179L20.4054 7.86891C20.5375 7.73681 20.7523 7.73681 20.8844 7.86891L23.0609 10.0448L25.9108 8.88436C25.9942 8.85049 26.087 8.85117 26.1703 8.88572C26.2529 8.92094 26.3187 8.98665 26.3525 9.06998L27.4791 11.8386H30.4679C30.6548 11.8386 30.8066 11.9903 30.8066 12.1773V15.2542L33.6429 16.4491C33.7256 16.4844 33.7913 16.5501 33.8252 16.6334C33.859 16.7167 33.859 16.8095 33.8238 16.8928L32.6634 19.6466L34.7763 21.7601C34.9084 21.8922 34.9084 22.107 34.7763 22.2391L32.6004 24.4149L33.7608 27.2655C33.8313 27.4389 33.7479 27.6361 33.5752 27.7065L30.8066 28.8338V31.8225C30.8066 32.0095 30.6548 32.1613 30.4679 32.1613H27.3903L26.1954 34.9976C26.1601 35.0803 26.0944 35.146 26.0111 35.1798C25.9285 35.2137 25.8357 35.213 25.7517 35.1785L22.9986 34.0181L20.8851 36.1309C20.8187 36.1967 20.732 36.2298 20.6452 36.2298ZM18.3102 33.2174C18.3982 33.2174 18.4849 33.2519 18.55 33.3163L20.6452 35.4122L22.6802 33.3779C22.7778 33.2804 22.9248 33.2519 23.0514 33.3054L25.7029 34.4225L26.8531 31.6911C26.906 31.5658 27.0293 31.4838 27.1654 31.4838H30.1292V28.6061C30.1292 28.4686 30.2125 28.3447 30.3405 28.2925L33.0062 27.2073L31.8891 24.4624C31.8376 24.3364 31.8667 24.1914 31.9629 24.0952L34.0575 21.9999L32.0226 19.965C31.925 19.8674 31.8959 19.7211 31.9501 19.5937L33.0671 16.9416L30.3364 15.7914C30.2104 15.7385 30.1292 15.6159 30.1292 15.4797V12.516H27.2515C27.114 12.516 26.9893 12.4327 26.9378 12.3047L25.8526 9.63969L23.1077 10.7568C22.9824 10.8076 22.8374 10.7791 22.7405 10.6829L20.6452 8.58765L18.6103 10.622C18.512 10.7202 18.3664 10.748 18.239 10.6944L15.5876 9.57736L14.4373 12.3087C14.3845 12.4341 14.2612 12.516 14.1251 12.516H11.1613V15.3937C11.1613 15.5312 11.078 15.6552 10.95 15.7074L8.28432 16.7926L9.40139 19.5375C9.45288 19.6635 9.42375 19.8085 9.32755 19.9047L7.23296 21.9999L9.26794 24.0349C9.36549 24.1325 9.39462 24.2788 9.34042 24.4061L8.22335 27.0582L10.954 28.2085C11.08 28.2613 11.1613 28.3839 11.1613 28.5201V31.4838H14.039C14.1765 31.4838 14.3012 31.5672 14.3527 31.6952L15.4379 34.3602L18.1828 33.2431C18.2235 33.2255 18.2668 33.2174 18.3102 33.2174Z"/>
</mask>
<path d="M20.6452 31.4838C15.4155 31.4838 11.1613 27.2296 11.1613 21.9999C11.1613 16.7702 15.4155 12.516 20.6452 12.516C25.8749 12.516 30.1292 16.7702 30.1292 21.9999C30.1292 27.2296 25.8749 31.4838 20.6452 31.4838ZM20.6452 13.1934C15.7895 13.1934 11.8388 17.1442 11.8388 21.9999C11.8388 26.8557 15.7895 30.8064 20.6452 30.8064C25.501 30.8064 29.4517 26.8557 29.4517 21.9999C29.4517 17.1442 25.501 13.1934 20.6452 13.1934ZM13.533 40.2876C13.491 40.2876 13.449 40.2802 13.4083 40.2639C12.9985 40.102 12.5954 39.9259 12.2005 39.7375C12.0311 39.6569 11.96 39.4551 12.0406 39.2857C12.1212 39.117 12.3238 39.0452 12.4918 39.1258C12.8732 39.3081 13.262 39.4774 13.6576 39.6339C13.8317 39.703 13.9171 39.8994 13.848 40.0735C13.7958 40.2063 13.6678 40.2876 13.533 40.2876Z" fill="white"/>
<path d="M15.5646 40.9677C15.3776 40.9677 15.2259 40.816 15.2259 40.629V38.0467C8.32632 35.7204 3.70969 29.3032 3.70969 21.9999C3.70969 17.4138 5.51299 13.1196 8.78765 9.90795C12.061 6.69697 16.3741 4.98716 20.9826 5.06709C21.0639 5.06845 21.1418 5.09961 21.2028 5.1538C21.2739 5.21883 21.3227 5.31842 21.3227 5.41461V5.94029L23.2147 4.04825L21.3227 2.15621V2.70221C21.3227 2.79299 21.2861 2.88037 21.2217 2.94337C21.1567 3.00705 21.0551 3.03415 20.9785 3.04092L20.6452 3.03212C10.1865 3.03212 1.67742 11.5412 1.67742 21.9999C1.67742 28.638 5.22305 34.8797 10.931 38.2899C11.0909 38.3861 11.1437 38.5941 11.0482 38.7546C10.9527 38.9151 10.744 38.9666 10.5828 38.8718C4.67231 35.3397 1 28.8751 1 21.9999C1 11.1673 9.81326 2.35469 20.6452 2.35469V1.33856C20.6452 1.20172 20.7279 1.07775 20.8546 1.02559C20.9812 0.973432 21.1269 1.00256 21.2238 1.09876L23.9335 3.80844C24.0656 3.94054 24.0656 4.15528 23.9335 4.28738L21.2238 6.99707C21.1269 7.09394 20.9806 7.12307 20.8546 7.07023C20.7279 7.01874 20.6452 6.89478 20.6452 6.75794V5.7418H20.6425C16.3572 5.7418 12.3272 7.38591 9.26184 10.3916C6.1186 13.4753 4.38711 17.5974 4.38711 21.9999C4.38711 29.0898 8.92042 35.3106 15.6682 37.479C15.8078 37.5244 15.9033 37.6545 15.9033 37.8015V40.629C15.9033 40.816 15.7515 40.9677 15.5646 40.9677ZM20.3065 43C20.2185 43 20.1318 42.9655 20.0667 42.9011L17.357 40.1914C17.2249 40.0593 17.2249 39.8446 17.357 39.7125L20.0667 37.0028C20.1636 36.9059 20.3099 36.8768 20.4359 36.9296C20.5626 36.9811 20.6452 37.1051 20.6452 37.2419V38.258H20.648C24.9333 38.258 28.9633 36.6139 32.0287 33.6082C35.1719 30.5246 36.9034 26.4025 36.9034 21.9999C36.9034 14.9094 32.3701 8.68859 25.6223 6.52084C25.4827 6.47545 25.3872 6.34539 25.3872 6.19839V3.37083C25.3872 3.18386 25.5389 3.03212 25.7259 3.03212C25.9129 3.03212 26.0646 3.18386 26.0646 3.37083V5.95316C32.9642 8.27943 37.5808 14.6966 37.5808 21.9999C37.5808 26.5861 35.7775 30.8802 32.5028 34.0919C29.2295 37.3022 24.913 39.0093 20.3079 38.9328C20.2266 38.9314 20.1487 38.9002 20.0877 38.8461C20.0166 38.781 19.9678 38.6814 19.9678 38.5852V38.0596L18.0758 39.9516L19.9678 41.8436V41.2976C19.9678 41.2069 20.0044 41.1195 20.0688 41.0565C20.1338 40.9921 20.209 40.9488 20.312 40.9589L20.6452 40.9677C31.104 40.9677 39.6131 32.4586 39.6131 21.9999C39.6131 15.3619 36.0674 9.12011 30.3595 5.70996C30.1996 5.61377 30.1468 5.4058 30.2423 5.24525C30.3385 5.08403 30.5458 5.03322 30.7077 5.12806C36.6182 8.66014 40.2905 15.1248 40.2905 21.9999C40.2905 32.8326 31.4772 41.6452 20.6452 41.6452V42.6613C20.6452 42.7981 20.5626 42.9221 20.4359 42.9743C20.3946 42.9919 20.3499 43 20.3065 43Z" fill="white"/>
<path d="M28.9443 4.90722C28.8956 4.90722 28.8454 4.89638 28.7987 4.87403C28.4173 4.6918 28.0285 4.52244 27.6329 4.36596C27.4588 4.29686 27.3734 4.10041 27.4425 3.92631C27.5116 3.75222 27.7108 3.66754 27.8815 3.73596C28.2913 3.89786 28.6944 4.07399 29.0893 4.26231C29.2587 4.34293 29.3298 4.5448 29.2492 4.71415C29.1916 4.83609 29.0703 4.90722 28.9443 4.90722ZM21.6614 29.4516H19.6291C19.4421 29.4516 19.2904 29.2998 19.2904 29.1129V27.4193H16.9194C16.7325 27.4193 16.5807 27.2676 16.5807 27.0806V25.0483C16.5807 24.8614 16.7325 24.7096 16.9194 24.7096H22.0001V23.3548H16.9194C16.7325 23.3548 16.5807 23.203 16.5807 23.0161V16.9193C16.5807 16.7323 16.7325 16.5806 16.9194 16.5806H19.2904V14.887C19.2904 14.7 19.4421 14.5483 19.6291 14.5483H21.6614C21.8483 14.5483 22.0001 14.7 22.0001 14.887V16.5806H24.3711C24.558 16.5806 24.7098 16.7323 24.7098 16.9193V18.9515C24.7098 19.1385 24.558 19.2902 24.3711 19.2902H19.2904V20.6451H24.3711C24.558 20.6451 24.7098 20.7968 24.7098 20.9838V27.0806C24.7098 27.2676 24.558 27.4193 24.3711 27.4193H22.0001V29.1129C22.0001 29.2998 21.8483 29.4516 21.6614 29.4516ZM19.9678 28.7741H21.3227V27.0806C21.3227 26.8936 21.4744 26.7419 21.6614 26.7419H24.0324V21.3225H18.9517C18.7647 21.3225 18.613 21.1708 18.613 20.9838V18.9515C18.613 18.7646 18.7647 18.6128 18.9517 18.6128H24.0324V17.258H21.6614C21.4744 17.258 21.3227 17.1062 21.3227 16.9193V15.2257H19.9678V16.9193C19.9678 17.1062 19.8161 17.258 19.6291 17.258H17.2581V22.6773H22.3388C22.5258 22.6773 22.6775 22.8291 22.6775 23.0161V25.0483C22.6775 25.2353 22.5258 25.387 22.3388 25.387H17.2581V26.7419H19.6291C19.8161 26.7419 19.9678 26.8936 19.9678 27.0806V28.7741Z" fill="white"/>
<path d="M20.6452 36.2298C20.5585 36.2298 20.4718 36.1967 20.4054 36.1309L18.2289 33.9551L15.379 35.1155C15.2956 35.1494 15.2028 35.1487 15.1195 35.1141C15.0369 35.0789 14.9712 35.0132 14.9373 34.9299L13.8114 32.1613H10.8226C10.6357 32.1613 10.4839 32.0095 10.4839 31.8225V28.7457L7.64754 27.5507C7.5649 27.5155 7.49919 27.4498 7.46532 27.3665C7.43145 27.2831 7.43145 27.1903 7.46667 27.107L8.6271 24.3533L6.51422 22.2397C6.38212 22.1076 6.38212 21.8929 6.51422 21.7608L8.6901 19.5849L7.52967 16.7343C7.45922 16.5609 7.54254 16.3638 7.71529 16.2933L10.4839 15.1661V12.1773C10.4839 11.9903 10.6357 11.8386 10.8226 11.8386H13.9002L15.0951 9.00223C15.1304 8.91959 15.1961 8.85388 15.2794 8.82001C15.3627 8.78614 15.4555 8.78681 15.5388 8.82136L18.2919 9.98179L20.4054 7.86891C20.5375 7.73681 20.7523 7.73681 20.8844 7.86891L23.0609 10.0448L25.9108 8.88436C25.9942 8.85049 26.087 8.85117 26.1703 8.88572C26.2529 8.92094 26.3187 8.98665 26.3525 9.06998L27.4791 11.8386H30.4679C30.6548 11.8386 30.8066 11.9903 30.8066 12.1773V15.2542L33.6429 16.4491C33.7256 16.4844 33.7913 16.5501 33.8252 16.6334C33.859 16.7167 33.859 16.8095 33.8238 16.8928L32.6634 19.6466L34.7763 21.7601C34.9084 21.8922 34.9084 22.107 34.7763 22.2391L32.6004 24.4149L33.7608 27.2655C33.8313 27.4389 33.7479 27.6361 33.5752 27.7065L30.8066 28.8338V31.8225C30.8066 32.0095 30.6548 32.1613 30.4679 32.1613H27.3903L26.1954 34.9976C26.1601 35.0803 26.0944 35.146 26.0111 35.1798C25.9285 35.2137 25.8357 35.213 25.7517 35.1785L22.9986 34.0181L20.8851 36.1309C20.8187 36.1967 20.732 36.2298 20.6452 36.2298ZM18.3102 33.2174C18.3982 33.2174 18.4849 33.2519 18.55 33.3163L20.6452 35.4122L22.6802 33.3779C22.7778 33.2804 22.9248 33.2519 23.0514 33.3054L25.7029 34.4225L26.8531 31.6911C26.906 31.5658 27.0293 31.4838 27.1654 31.4838H30.1292V28.6061C30.1292 28.4686 30.2125 28.3447 30.3405 28.2925L33.0062 27.2073L31.8891 24.4624C31.8376 24.3364 31.8667 24.1914 31.9629 24.0952L34.0575 21.9999L32.0226 19.965C31.925 19.8674 31.8959 19.7211 31.9501 19.5937L33.0671 16.9416L30.3364 15.7914C30.2104 15.7385 30.1292 15.6159 30.1292 15.4797V12.516H27.2515C27.114 12.516 26.9893 12.4327 26.9378 12.3047L25.8526 9.63969L23.1077 10.7568C22.9824 10.8076 22.8374 10.7791 22.7405 10.6829L20.6452 8.58765L18.6103 10.622C18.512 10.7202 18.3664 10.748 18.239 10.6944L15.5876 9.57736L14.4373 12.3087C14.3845 12.4341 14.2612 12.516 14.1251 12.516H11.1613V15.3937C11.1613 15.5312 11.078 15.6552 10.95 15.7074L8.28432 16.7926L9.40139 19.5375C9.45288 19.6635 9.42375 19.8085 9.32755 19.9047L7.23296 21.9999L9.26794 24.0349C9.36549 24.1325 9.39462 24.2788 9.34042 24.4061L8.22335 27.0582L10.954 28.2085C11.08 28.2613 11.1613 28.3839 11.1613 28.5201V31.4838H14.039C14.1765 31.4838 14.3012 31.5672 14.3527 31.6952L15.4379 34.3602L18.1828 33.2431C18.2235 33.2255 18.2668 33.2174 18.3102 33.2174Z" fill="white"/>
<path d="M20.6452 31.4838C15.4155 31.4838 11.1613 27.2296 11.1613 21.9999C11.1613 16.7702 15.4155 12.516 20.6452 12.516C25.8749 12.516 30.1292 16.7702 30.1292 21.9999C30.1292 27.2296 25.8749 31.4838 20.6452 31.4838ZM20.6452 13.1934C15.7895 13.1934 11.8388 17.1442 11.8388 21.9999C11.8388 26.8557 15.7895 30.8064 20.6452 30.8064C25.501 30.8064 29.4517 26.8557 29.4517 21.9999C29.4517 17.1442 25.501 13.1934 20.6452 13.1934ZM13.533 40.2876C13.491 40.2876 13.449 40.2802 13.4083 40.2639C12.9985 40.102 12.5954 39.9259 12.2005 39.7375C12.0311 39.6569 11.96 39.4551 12.0406 39.2857C12.1212 39.117 12.3238 39.0452 12.4918 39.1258C12.8732 39.3081 13.262 39.4774 13.6576 39.6339C13.8317 39.703 13.9171 39.8994 13.848 40.0735C13.7958 40.2063 13.6678 40.2876 13.533 40.2876Z" stroke="white" stroke-width="0.654841" mask="url(#path-1-outside-1_812_35021)"/>
<path d="M15.5646 40.9677C15.3776 40.9677 15.2259 40.816 15.2259 40.629V38.0467C8.32632 35.7204 3.70969 29.3032 3.70969 21.9999C3.70969 17.4138 5.51299 13.1196 8.78765 9.90795C12.061 6.69697 16.3741 4.98716 20.9826 5.06709C21.0639 5.06845 21.1418 5.09961 21.2028 5.1538C21.2739 5.21883 21.3227 5.31842 21.3227 5.41461V5.94029L23.2147 4.04825L21.3227 2.15621V2.70221C21.3227 2.79299 21.2861 2.88037 21.2217 2.94337C21.1567 3.00705 21.0551 3.03415 20.9785 3.04092L20.6452 3.03212C10.1865 3.03212 1.67742 11.5412 1.67742 21.9999C1.67742 28.638 5.22305 34.8797 10.931 38.2899C11.0909 38.3861 11.1437 38.5941 11.0482 38.7546C10.9527 38.9151 10.744 38.9666 10.5828 38.8718C4.67231 35.3397 1 28.8751 1 21.9999C1 11.1673 9.81326 2.35469 20.6452 2.35469V1.33856C20.6452 1.20172 20.7279 1.07775 20.8546 1.02559C20.9812 0.973432 21.1269 1.00256 21.2238 1.09876L23.9335 3.80844C24.0656 3.94054 24.0656 4.15528 23.9335 4.28738L21.2238 6.99707C21.1269 7.09394 20.9806 7.12307 20.8546 7.07023C20.7279 7.01874 20.6452 6.89478 20.6452 6.75794V5.7418H20.6425C16.3572 5.7418 12.3272 7.38591 9.26184 10.3916C6.1186 13.4753 4.38711 17.5974 4.38711 21.9999C4.38711 29.0898 8.92042 35.3106 15.6682 37.479C15.8078 37.5244 15.9033 37.6545 15.9033 37.8015V40.629C15.9033 40.816 15.7515 40.9677 15.5646 40.9677ZM20.3065 43C20.2185 43 20.1318 42.9655 20.0667 42.9011L17.357 40.1914C17.2249 40.0593 17.2249 39.8446 17.357 39.7125L20.0667 37.0028C20.1636 36.9059 20.3099 36.8768 20.4359 36.9296C20.5626 36.9811 20.6452 37.1051 20.6452 37.2419V38.258H20.648C24.9333 38.258 28.9633 36.6139 32.0287 33.6082C35.1719 30.5246 36.9034 26.4025 36.9034 21.9999C36.9034 14.9094 32.3701 8.68859 25.6223 6.52084C25.4827 6.47545 25.3872 6.34539 25.3872 6.19839V3.37083C25.3872 3.18386 25.5389 3.03212 25.7259 3.03212C25.9129 3.03212 26.0646 3.18386 26.0646 3.37083V5.95316C32.9642 8.27943 37.5808 14.6966 37.5808 21.9999C37.5808 26.5861 35.7775 30.8802 32.5028 34.0919C29.2295 37.3022 24.913 39.0093 20.3079 38.9328C20.2266 38.9314 20.1487 38.9002 20.0877 38.8461C20.0166 38.781 19.9678 38.6814 19.9678 38.5852V38.0596L18.0758 39.9516L19.9678 41.8436V41.2976C19.9678 41.2069 20.0044 41.1195 20.0688 41.0565C20.1338 40.9921 20.209 40.9488 20.312 40.9589L20.6452 40.9677C31.104 40.9677 39.6131 32.4586 39.6131 21.9999C39.6131 15.3619 36.0674 9.12011 30.3595 5.70996C30.1996 5.61377 30.1468 5.4058 30.2423 5.24525C30.3385 5.08403 30.5458 5.03322 30.7077 5.12806C36.6182 8.66014 40.2905 15.1248 40.2905 21.9999C40.2905 32.8326 31.4772 41.6452 20.6452 41.6452V42.6613C20.6452 42.7981 20.5626 42.9221 20.4359 42.9743C20.3946 42.9919 20.3499 43 20.3065 43Z" stroke="white" stroke-width="0.654841" mask="url(#path-1-outside-1_812_35021)"/>
<path d="M28.9443 4.90722C28.8956 4.90722 28.8454 4.89638 28.7987 4.87403C28.4173 4.6918 28.0285 4.52244 27.6329 4.36596C27.4588 4.29686 27.3734 4.10041 27.4425 3.92631C27.5116 3.75222 27.7108 3.66754 27.8815 3.73596C28.2913 3.89786 28.6944 4.07399 29.0893 4.26231C29.2587 4.34293 29.3298 4.5448 29.2492 4.71415C29.1916 4.83609 29.0703 4.90722 28.9443 4.90722ZM21.6614 29.4516H19.6291C19.4421 29.4516 19.2904 29.2998 19.2904 29.1129V27.4193H16.9194C16.7325 27.4193 16.5807 27.2676 16.5807 27.0806V25.0483C16.5807 24.8614 16.7325 24.7096 16.9194 24.7096H22.0001V23.3548H16.9194C16.7325 23.3548 16.5807 23.203 16.5807 23.0161V16.9193C16.5807 16.7323 16.7325 16.5806 16.9194 16.5806H19.2904V14.887C19.2904 14.7 19.4421 14.5483 19.6291 14.5483H21.6614C21.8483 14.5483 22.0001 14.7 22.0001 14.887V16.5806H24.3711C24.558 16.5806 24.7098 16.7323 24.7098 16.9193V18.9515C24.7098 19.1385 24.558 19.2902 24.3711 19.2902H19.2904V20.6451H24.3711C24.558 20.6451 24.7098 20.7968 24.7098 20.9838V27.0806C24.7098 27.2676 24.558 27.4193 24.3711 27.4193H22.0001V29.1129C22.0001 29.2998 21.8483 29.4516 21.6614 29.4516ZM19.9678 28.7741H21.3227V27.0806C21.3227 26.8936 21.4744 26.7419 21.6614 26.7419H24.0324V21.3225H18.9517C18.7647 21.3225 18.613 21.1708 18.613 20.9838V18.9515C18.613 18.7646 18.7647 18.6128 18.9517 18.6128H24.0324V17.258H21.6614C21.4744 17.258 21.3227 17.1062 21.3227 16.9193V15.2257H19.9678V16.9193C19.9678 17.1062 19.8161 17.258 19.6291 17.258H17.2581V22.6773H22.3388C22.5258 22.6773 22.6775 22.8291 22.6775 23.0161V25.0483C22.6775 25.2353 22.5258 25.387 22.3388 25.387H17.2581V26.7419H19.6291C19.8161 26.7419 19.9678 26.8936 19.9678 27.0806V28.7741Z" stroke="white" stroke-width="0.654841" mask="url(#path-1-outside-1_812_35021)"/>
<path d="M20.6452 36.2298C20.5585 36.2298 20.4718 36.1967 20.4054 36.1309L18.2289 33.9551L15.379 35.1155C15.2956 35.1494 15.2028 35.1487 15.1195 35.1141C15.0369 35.0789 14.9712 35.0132 14.9373 34.9299L13.8114 32.1613H10.8226C10.6357 32.1613 10.4839 32.0095 10.4839 31.8225V28.7457L7.64754 27.5507C7.5649 27.5155 7.49919 27.4498 7.46532 27.3665C7.43145 27.2831 7.43145 27.1903 7.46667 27.107L8.6271 24.3533L6.51422 22.2397C6.38212 22.1076 6.38212 21.8929 6.51422 21.7608L8.6901 19.5849L7.52967 16.7343C7.45922 16.5609 7.54254 16.3638 7.71529 16.2933L10.4839 15.1661V12.1773C10.4839 11.9903 10.6357 11.8386 10.8226 11.8386H13.9002L15.0951 9.00223C15.1304 8.91959 15.1961 8.85388 15.2794 8.82001C15.3627 8.78614 15.4555 8.78681 15.5388 8.82136L18.2919 9.98179L20.4054 7.86891C20.5375 7.73681 20.7523 7.73681 20.8844 7.86891L23.0609 10.0448L25.9108 8.88436C25.9942 8.85049 26.087 8.85117 26.1703 8.88572C26.2529 8.92094 26.3187 8.98665 26.3525 9.06998L27.4791 11.8386H30.4679C30.6548 11.8386 30.8066 11.9903 30.8066 12.1773V15.2542L33.6429 16.4491C33.7256 16.4844 33.7913 16.5501 33.8252 16.6334C33.859 16.7167 33.859 16.8095 33.8238 16.8928L32.6634 19.6466L34.7763 21.7601C34.9084 21.8922 34.9084 22.107 34.7763 22.2391L32.6004 24.4149L33.7608 27.2655C33.8313 27.4389 33.7479 27.6361 33.5752 27.7065L30.8066 28.8338V31.8225C30.8066 32.0095 30.6548 32.1613 30.4679 32.1613H27.3903L26.1954 34.9976C26.1601 35.0803 26.0944 35.146 26.0111 35.1798C25.9285 35.2137 25.8357 35.213 25.7517 35.1785L22.9986 34.0181L20.8851 36.1309C20.8187 36.1967 20.732 36.2298 20.6452 36.2298ZM18.3102 33.2174C18.3982 33.2174 18.4849 33.2519 18.55 33.3163L20.6452 35.4122L22.6802 33.3779C22.7778 33.2804 22.9248 33.2519 23.0514 33.3054L25.7029 34.4225L26.8531 31.6911C26.906 31.5658 27.0293 31.4838 27.1654 31.4838H30.1292V28.6061C30.1292 28.4686 30.2125 28.3447 30.3405 28.2925L33.0062 27.2073L31.8891 24.4624C31.8376 24.3364 31.8667 24.1914 31.9629 24.0952L34.0575 21.9999L32.0226 19.965C31.925 19.8674 31.8959 19.7211 31.9501 19.5937L33.0671 16.9416L30.3364 15.7914C30.2104 15.7385 30.1292 15.6159 30.1292 15.4797V12.516H27.2515C27.114 12.516 26.9893 12.4327 26.9378 12.3047L25.8526 9.63969L23.1077 10.7568C22.9824 10.8076 22.8374 10.7791 22.7405 10.6829L20.6452 8.58765L18.6103 10.622C18.512 10.7202 18.3664 10.748 18.239 10.6944L15.5876 9.57736L14.4373 12.3087C14.3845 12.4341 14.2612 12.516 14.1251 12.516H11.1613V15.3937C11.1613 15.5312 11.078 15.6552 10.95 15.7074L8.28432 16.7926L9.40139 19.5375C9.45288 19.6635 9.42375 19.8085 9.32755 19.9047L7.23296 21.9999L9.26794 24.0349C9.36549 24.1325 9.39462 24.2788 9.34042 24.4061L8.22335 27.0582L10.954 28.2085C11.08 28.2613 11.1613 28.3839 11.1613 28.5201V31.4838H14.039C14.1765 31.4838 14.3012 31.5672 14.3527 31.6952L15.4379 34.3602L18.1828 33.2431C18.2235 33.2255 18.2668 33.2174 18.3102 33.2174Z" stroke="white" stroke-width="0.654841" mask="url(#path-1-outside-1_812_35021)"/>
</svg>
