<svg width="80" height="80" viewBox="0 0 80 80" fill="none" xmlns="http://www.w3.org/2000/svg">
<path d="M53.4223 23.3926L52.4268 26.8835L45.7672 25.096L46.7921 21.5019C47.0428 20.6227 47.6325 19.8791 48.4315 19.4347C49.2305 18.9903 50.1733 18.8814 51.0525 19.1322C51.9317 19.3829 52.6753 19.9726 53.1197 20.7716C53.5642 21.5705 53.673 22.5133 53.4223 23.3926ZM51.843 28.9264L45.7226 50.3901L40.7603 55.2926L39.0917 48.5018L45.1894 27.1178L51.843 28.9264Z" fill="black"/>
<path fill-rule="evenodd" clip-rule="evenodd" d="M44.9814 25.2003H30.2224V65.7207H66.1808C66.904 65.5288 67.0519 65.1455 66.9858 64.1106V26.8104C66.9479 26.0644 66.8155 25.6932 66.1808 25.2003H54.3735L46.4573 51.0958C43.7738 53.9134 40.6879 56.4627 40.6879 56.4627C40.6879 56.4627 39.3461 53.5109 38.2727 48.8148L44.9814 25.2003ZM48.6041 53.1084C48.0854 53.1084 47.6649 53.5289 47.6649 54.0476C47.6649 54.5663 48.0854 54.9868 48.6041 54.9868H57.9962C58.5149 54.9868 58.9354 54.5663 58.9354 54.0476C58.9354 53.5289 58.5149 53.1084 57.9962 53.1084H48.6041Z" fill="black"/>
<path d="M30.2224 67.3307H64.839C64.839 68.5164 63.8779 69.4775 62.6923 69.4775H30.2224V67.3307Z" fill="black"/>
<path d="M16 23.8586C16 22.8212 16.841 21.9802 17.8784 21.9802H26.1972C27.2346 21.9802 28.0756 22.8212 28.0756 23.8586V70.5509C28.0756 71.5883 27.2346 72.4293 26.1972 72.4293H17.8784C16.841 72.4293 16 71.5883 16 70.5509V59.5487H20.0252V59.012H16V54.1818H20.0252V53.6451H16V48.8148H20.0252V48.2781H16V43.4479H20.0252V42.9112H16V38.081H20.0252V37.5443H16V32.714H20.0252V32.1774H16V23.8586Z" fill="black"/>
</svg>
