<svg width="80" height="80" viewBox="0 0 80 80" fill="none" xmlns="http://www.w3.org/2000/svg">
<path d="M52.2402 20.0536C53.3208 19.0263 55.0187 19.05 56.0705 20.1069L67.1954 31.2862C68.2682 32.3642 68.2682 34.112 67.1954 35.19L38.3714 64.1547L38.3714 33.2381L52.2402 20.0536Z" fill="black"/>
<path d="M64.9955 50.7448C66.5127 50.7448 67.7425 51.9807 67.7425 53.5052V69.2396C67.7425 70.7641 66.5127 72 64.9955 72L38.3496 72V66.4655L53.9436 50.7448H64.9955Z" fill="black"/>
<path fill-rule="evenodd" clip-rule="evenodd" d="M17.747 19C16.2298 19 15 20.2359 15 21.7604V69.2396C15 70.7641 16.2298 72 17.747 72H33.4049C34.9221 72 36.152 70.7641 36.152 69.2396V21.7604C36.152 20.2359 34.9221 19 33.4049 19H17.747ZM25.576 69.2396C28.3827 69.2396 30.6579 66.9532 30.6579 64.1328C30.6579 61.3124 28.3827 59.026 25.576 59.026C22.7693 59.026 20.494 61.3124 20.494 64.1328C20.494 66.9532 22.7693 69.2396 25.576 69.2396Z" fill="black"/>
</svg>
