<svg width="36" height="42" viewBox="0 0 36 42" fill="none" xmlns="http://www.w3.org/2000/svg">
<path d="M10.0886 34.3612C9.15401 34.7337 8.28034 34.3951 7.88075 34.1648C7.21025 33.7787 6.74971 33.115 6.61426 32.3565L6.15371 29.7625L1.70407 35.9528C1.29771 36.4269 1.65666 37.5173 2.6387 37.3073L8.14488 35.8376L9.6281 41.3438C9.73646 41.9195 10.7862 42.4071 11.2671 41.4793L14.4096 34.5102L13.3057 33.2031L10.0886 34.3612ZM35.073 35.9528L29.9461 28.8279L29.0115 28.9972L28.4087 32.3565C28.2733 33.1218 27.806 33.7787 27.1355 34.1716C26.7359 34.4018 26.0383 34.7201 24.9343 34.368L21.7851 33.2302L25.51 41.4793C25.6658 41.9872 26.7494 42.3936 27.149 41.3438L28.6187 35.8376L34.1249 37.3073C35.2424 37.4495 35.4117 36.393 35.073 35.9528ZM17.5183 8.74694C12.6961 8.74694 8.76797 12.6751 8.76797 17.4972C8.76797 22.3194 12.6961 26.2475 17.5183 26.2475C22.3404 26.2475 26.2686 22.3194 26.2686 17.4972C26.2686 12.6683 22.3404 8.74694 17.5183 8.74694ZM21.162 22.5903L17.5183 19.9422L13.8746 22.5903L15.2697 18.3032L11.626 15.6551H16.1299L17.525 11.368L18.9202 15.6551H23.424L19.7803 18.3032L21.162 22.5903Z" fill="white"/>
<path d="M26.6953 32.0449L27.508 27.4801L32.066 26.6674C32.9058 26.3897 32.8245 25.7531 32.7365 25.5093L31.1652 21.1544L34.7073 18.1609C35.283 17.4972 34.9037 16.9893 34.7073 16.8267L31.1652 13.8332L32.7365 9.47159C32.8245 9.22777 32.8719 8.52341 32.066 8.31346L27.508 7.50074L26.6953 2.93595C26.6478 2.68537 26.2618 2.02842 25.5371 2.26546L21.1755 3.83672L18.182 0.294611C17.8501 -0.0982038 17.1796 -0.0982038 16.8478 0.294611L13.8543 3.83672L9.49266 2.26546C9.10661 2.11646 8.46321 2.28578 8.33453 2.93595L7.52181 7.50074L2.95702 8.31346C2.23912 8.46246 2.1443 9.16682 2.28653 9.47159L3.85779 13.8332L0.315681 16.8267C-0.232906 17.3685 0.0447736 17.9645 0.315681 18.1609L3.85779 21.1477L2.28653 25.5093C2.19848 25.7531 2.12399 26.4439 2.95702 26.6674L7.52181 27.4801L8.33453 32.0449C8.54448 32.8373 9.24884 32.8034 9.49266 32.7154L13.8543 31.1441L16.8478 34.6863C17.0103 34.8827 17.5657 35.2687 18.182 34.6863L21.1755 31.1441L25.5371 32.7154C26.3769 32.9118 26.6478 32.3023 26.6953 32.0449ZM17.5183 27.9949C11.7276 27.9949 7.02063 23.2878 7.02063 17.4972C7.02063 11.7066 11.7276 6.99956 17.5183 6.99956C23.3089 6.99956 28.0159 11.7066 28.0159 17.4972C28.0159 23.2878 23.3089 27.9949 17.5183 27.9949Z" fill="white"/>
</svg>
