<svg width="24" height="442" viewBox="0 0 24 442" fill="none" xmlns="http://www.w3.org/2000/svg">
<g clip-path="url(#clip0_1144_3135)">
<rect x="10" y="37" width="3" height="377" rx="1.5" fill="#D1D1D1" fill-opacity="0.7"/>
<rect x="10" y="37" width="3" height="61" rx="1.5" fill="white"/>
</g>
<path d="M5.02 21.3C4.22 21.3 3.46667 21.0733 2.76 20.62C2.06667 20.1667 1.50667 19.4533 1.08 18.48C0.653333 17.5067 0.44 16.24 0.44 14.68C0.44 13.1067 0.653333 11.8333 1.08 10.86C1.50667 9.87333 2.06667 9.15333 2.76 8.7C3.46667 8.24667 4.22 8.02 5.02 8.02C5.82 8.02 6.56667 8.24667 7.26 8.7C7.96667 9.15333 8.53333 9.87333 8.96 10.86C9.4 11.8333 9.62 13.1067 9.62 14.68C9.62 16.24 9.4 17.5067 8.96 18.48C8.53333 19.4533 7.96667 20.1667 7.26 20.62C6.56667 21.0733 5.82 21.3 5.02 21.3ZM5.02 20.9C5.35333 20.9 5.63333 20.8133 5.86 20.64C6.1 20.4667 6.29333 20.1533 6.44 19.7C6.58667 19.2467 6.69333 18.62 6.76 17.82C6.82667 17.0067 6.86 15.96 6.86 14.68C6.86 13.4 6.82667 12.3533 6.76 11.54C6.69333 10.7133 6.58667 10.0733 6.44 9.62C6.29333 9.16667 6.1 8.85333 5.86 8.68C5.63333 8.50667 5.35333 8.42 5.02 8.42C4.68667 8.42 4.4 8.50667 4.16 8.68C3.93333 8.85333 3.74667 9.16667 3.6 9.62C3.45333 10.06 3.34667 10.6933 3.28 11.52C3.21333 12.3333 3.18 13.3867 3.18 14.68C3.18 15.96 3.21333 17.0067 3.28 17.82C3.34667 18.6333 3.45333 19.2667 3.6 19.72C3.74667 20.16 3.93333 20.4667 4.16 20.64C4.4 20.8133 4.68667 20.9 5.02 20.9ZM10.5991 21V20.8L11.3791 20.56C11.8857 20.3867 12.1391 20.0467 12.1391 19.54V9.86L10.5191 10.08V9.82C11.3057 9.66 12.0591 9.43333 12.7791 9.14C13.5124 8.84667 14.1991 8.50667 14.8391 8.12L15.0991 8.3L15.0191 11.16V19.54C15.0191 20.06 15.2724 20.3933 15.7791 20.54L16.5991 20.8V21H10.5991Z" fill="white"/>
<path d="M5.02 435.3C4.22 435.3 3.46667 435.073 2.76 434.62C2.06667 434.167 1.50667 433.453 1.08 432.48C0.653333 431.507 0.44 430.24 0.44 428.68C0.44 427.107 0.653333 425.833 1.08 424.86C1.50667 423.873 2.06667 423.153 2.76 422.7C3.46667 422.247 4.22 422.02 5.02 422.02C5.82 422.02 6.56667 422.247 7.26 422.7C7.96667 423.153 8.53333 423.873 8.96 424.86C9.4 425.833 9.62 427.107 9.62 428.68C9.62 430.24 9.4 431.507 8.96 432.48C8.53333 433.453 7.96667 434.167 7.26 434.62C6.56667 435.073 5.82 435.3 5.02 435.3ZM5.02 434.9C5.35333 434.9 5.63333 434.813 5.86 434.64C6.1 434.467 6.29333 434.153 6.44 433.7C6.58667 433.247 6.69333 432.62 6.76 431.82C6.82667 431.007 6.86 429.96 6.86 428.68C6.86 427.4 6.82667 426.353 6.76 425.54C6.69333 424.713 6.58667 424.073 6.44 423.62C6.29333 423.167 6.1 422.853 5.86 422.68C5.63333 422.507 5.35333 422.42 5.02 422.42C4.68667 422.42 4.4 422.507 4.16 422.68C3.93333 422.853 3.74667 423.167 3.6 423.62C3.45333 424.06 3.34667 424.693 3.28 425.52C3.21333 426.333 3.18 427.387 3.18 428.68C3.18 429.96 3.21333 431.007 3.28 431.82C3.34667 432.633 3.45333 433.267 3.6 433.72C3.74667 434.16 3.93333 434.467 4.16 434.64C4.4 434.813 4.68667 434.9 5.02 434.9ZM15.4391 435.3C14.0124 435.3 12.8591 434.827 11.9791 433.88C11.1124 432.933 10.6791 431.6 10.6791 429.88C10.6791 428.853 10.8791 427.893 11.2791 427C11.6791 426.107 12.2457 425.307 12.9791 424.6C13.7257 423.893 14.6124 423.32 15.6391 422.88C16.6791 422.427 17.8324 422.14 19.0991 422.02L19.1591 422.32C17.5324 422.653 16.2924 423.267 15.4391 424.16C14.5991 425.053 14.0457 426.267 13.7791 427.8C14.5524 427.347 15.4191 427.12 16.3791 427.12C17.1924 427.12 17.8657 427.287 18.3991 427.62C18.9324 427.953 19.3324 428.407 19.5991 428.98C19.8791 429.54 20.0191 430.173 20.0191 430.88C20.0191 431.827 19.7924 432.633 19.3391 433.3C18.8991 433.953 18.3257 434.453 17.6191 434.8C16.9257 435.133 16.1991 435.3 15.4391 435.3ZM13.5991 430.3C13.5991 431.953 13.7391 433.133 14.0191 433.84C14.3124 434.547 14.7657 434.9 15.3791 434.9C15.9924 434.9 16.4391 434.613 16.7191 434.04C17.0124 433.453 17.1591 432.48 17.1591 431.12C17.1591 429.867 17.0124 428.993 16.7191 428.5C16.4257 428.007 15.9457 427.76 15.2791 427.76C14.7191 427.76 14.1991 427.9 13.7191 428.18C13.6391 428.82 13.5991 429.527 13.5991 430.3Z" fill="white"/>
<defs>
<clipPath id="clip0_1144_3135">
<rect width="3" height="377" fill="white" transform="translate(10 37)"/>
</clipPath>
</defs>
</svg>
