<svg width="35" height="40" viewBox="0 0 35 40" fill="none" xmlns="http://www.w3.org/2000/svg">
<mask id="path-1-outside-1_812_35013" maskUnits="userSpaceOnUse" x="0" y="-0.536133" width="35" height="41" fill="black">
<rect fill="white" y="-0.536133" width="35" height="41"/>
<path d="M13.6681 37.0945C13.83 37.0945 13.9853 37.0302 14.0998 36.9157C14.2143 36.8012 14.2786 36.646 14.2786 36.484C14.2786 36.3221 14.2143 36.1668 14.0998 36.0523C13.9853 35.9378 13.83 35.8735 13.6681 35.8735H8.17351C8.01159 35.8735 7.85631 35.9378 7.74181 36.0523C7.62732 36.1668 7.563 36.3221 7.563 36.484C7.563 36.646 7.62732 36.8012 7.74181 36.9157C7.85631 37.0302 8.01159 37.0945 8.17351 37.0945H13.6681ZM22.5205 17.6849V19.1458C22.5257 19.147 22.5303 19.1489 22.5355 19.1498C23.6952 18.4726 24.5993 17.4319 25.1077 16.1889C25.616 14.9459 25.7003 13.5699 25.3473 12.2741C24.9944 10.9783 24.224 9.83513 23.1554 9.02159C22.0869 8.20806 20.7799 7.7696 19.437 7.77416C18.094 7.77871 16.79 8.22602 15.7271 9.04679C14.6641 9.86755 13.9015 11.016 13.5573 12.3141C13.2132 13.6122 13.3067 14.9876 13.8235 16.2272C14.3403 17.4667 15.2514 18.5013 16.4157 19.1705V17.6995C15.6244 17.069 15.0485 16.2083 14.7676 15.2364C14.4866 14.2644 14.5145 13.2292 14.8473 12.2738C15.1801 11.3183 15.8015 10.4899 16.6255 9.90283C17.4495 9.3158 18.4355 8.99919 19.4473 8.99676C20.459 8.99433 21.4465 9.3062 22.2733 9.88928C23.1002 10.4724 23.7255 11.2978 24.0629 12.2517C24.4003 13.2055 24.4331 14.2406 24.1568 15.2139C23.8805 16.1871 23.3088 17.0506 22.5205 17.6849Z"/>
<path d="M32.7466 5.34796H5.27358C4.788 5.34852 4.32247 5.54167 3.97911 5.88503C3.63576 6.22838 3.44261 6.69391 3.44205 7.17949V20.6107C3.44261 21.0963 3.63576 21.5618 3.97911 21.9052C4.32247 22.2486 4.788 22.4417 5.27358 22.4423H16.4157V21.2213H9.51114C9.37093 19.9838 8.81509 18.8305 7.93446 17.9499C7.05384 17.0692 5.90054 16.5134 4.66307 16.3732V11.4171C5.90054 11.2768 7.05384 10.721 7.93446 9.84038C8.81509 8.95976 9.37093 7.80645 9.51114 6.56898H28.509C28.6492 7.80645 29.2051 8.95976 30.0857 9.84038C30.9663 10.721 32.1196 11.2768 33.3571 11.4171V16.3732C32.1196 16.5134 30.9663 17.0692 30.0857 17.9499C29.2051 18.8305 28.6492 19.9838 28.509 21.2213H25.6799C26.2306 21.4867 26.6883 21.9123 26.9931 22.4423H32.7466C33.2322 22.4417 33.6977 22.2486 34.0411 21.9052C34.3844 21.5618 34.5776 21.0963 34.5781 20.6107V7.17949C34.5776 6.69391 34.3844 6.22838 34.0411 5.88503C33.6977 5.54167 33.2322 5.34852 32.7466 5.34796ZM8.2773 21.2213H5.27358C5.11174 21.221 4.95659 21.1566 4.84215 21.0422C4.72771 20.9277 4.66331 20.7726 4.66307 20.6107V17.607C5.57438 17.7399 6.41843 18.1635 7.06963 18.8147C7.72084 19.4659 8.1444 20.3099 8.2773 21.2213ZM4.66307 10.1832V7.17949C4.66331 7.01765 4.72771 6.8625 4.84215 6.74806C4.95659 6.63362 5.11174 6.56922 5.27358 6.56898H8.2773C8.1444 7.48029 7.72084 8.32434 7.06963 8.97554C6.41843 9.62675 5.57438 10.0503 4.66307 10.1832ZM33.3571 20.6107C33.3569 20.7726 33.2925 20.9277 33.178 21.0422C33.0636 21.1566 32.9084 21.221 32.7466 21.2213H29.7429C29.8758 20.3099 30.2993 19.4659 30.9505 18.8147C31.6017 18.1635 32.4458 17.7399 33.3571 17.607V20.6107ZM33.3571 10.1832C32.4458 10.0503 31.6017 9.62675 30.9505 8.97554C30.2993 8.32434 29.8758 7.48029 29.7429 6.56898H32.7466C32.9084 6.56922 33.0636 6.63362 33.178 6.74806C33.2925 6.8625 33.3569 7.01765 33.3571 7.17949V10.1832Z"/>
<path d="M19.5101 10.2418C19.4086 10.2421 19.3114 10.2823 19.2395 10.3539C19.1676 10.4255 19.1268 10.5225 19.1261 10.624V11.0868C18.0577 11.2006 17.59 11.8255 17.59 12.5483C17.59 13.3573 18.1105 13.7385 18.7207 13.9916C19.2158 13.8632 19.7355 13.863 20.2307 13.9909C20.7259 14.1189 21.1804 14.3708 21.5513 14.723C21.1515 13.1857 18.5586 13.5303 18.5586 12.5483C18.5586 12.2238 18.8169 11.907 19.5101 11.907C19.9391 11.9023 20.3549 12.0555 20.6783 12.3374C20.7717 12.4394 20.8996 12.503 21.0373 12.516C21.154 12.5183 21.267 12.4744 21.3514 12.3938C21.4358 12.3131 21.4849 12.2023 21.4878 12.0856C21.4869 11.9924 21.4577 11.9017 21.4042 11.8255C21.2151 11.6099 20.9848 11.4342 20.7269 11.3087C20.469 11.1832 20.1887 11.1105 19.9023 11.0947V10.624C19.9017 10.5731 19.8911 10.5229 19.8711 10.4761C19.851 10.4294 19.822 10.387 19.7855 10.3515C19.7491 10.316 19.706 10.2881 19.6587 10.2692C19.6115 10.2504 19.561 10.2411 19.5101 10.2418Z"/>
<path d="M17.3312 38.3156H3.44205C3.11821 38.3156 2.80764 38.1869 2.57865 37.9579C2.34967 37.729 2.22102 37.4184 2.22102 37.0945V2.90591C2.22102 2.58208 2.34967 2.27151 2.57865 2.04252C2.80764 1.81353 3.11821 1.68489 3.44205 1.68489H7.50378L8.64543 3.80581C8.69774 3.90297 8.7754 3.98415 8.87017 4.04069C8.96493 4.09724 9.07325 4.12704 9.1836 4.12694H15.1007C15.2109 4.12693 15.3191 4.09708 15.4138 4.04054C15.5084 3.984 15.586 3.90288 15.6382 3.80581L16.7799 1.68489H20.5364C20.8602 1.68489 21.1708 1.81353 21.3998 2.04252C21.6287 2.27151 21.7574 2.58208 21.7574 2.90591V4.12694H22.9784V2.90591C22.9777 2.25847 22.7202 1.63774 22.2623 1.17993C21.8045 0.722114 21.1838 0.464594 20.5364 0.463867H3.44205C2.7946 0.464594 2.17388 0.722114 1.71606 1.17993C1.25825 1.63774 1.00073 2.25847 1 2.90591V37.0945C1.00081 37.742 1.25835 38.3626 1.71615 38.8204C2.17395 39.2782 2.79462 39.5358 3.44205 39.5366H17.438C17.3677 39.3407 17.3316 39.1342 17.3312 38.9261V38.3156ZM15.3931 1.68489L14.7359 2.90591H9.54777L8.89055 1.68489H15.3931Z"/>
<path d="M26.7941 23.6633C26.5822 23.6638 26.3719 23.7013 26.1729 23.7741C26.1443 23.4989 26.0535 23.2337 25.9074 22.9987C25.7613 22.7637 25.5637 22.565 25.3294 22.4176C25.0952 22.2702 24.8306 22.1779 24.5555 22.1478C24.2804 22.1178 24.0021 22.1506 23.7415 22.2439V22.137C23.7424 21.8438 23.6726 21.5546 23.5381 21.2941C23.4036 21.0335 23.2083 20.8091 22.9688 20.6399C22.7293 20.4708 22.4525 20.3618 22.162 20.3222C21.8714 20.2825 21.5756 20.3135 21.2995 20.4123V16.9477C21.3026 16.7052 21.2576 16.4645 21.1669 16.2395C21.0763 16.0146 20.9419 15.8099 20.7715 15.6373C20.6012 15.4647 20.3982 15.3277 20.1745 15.2342C19.9507 15.1407 19.7106 15.0925 19.4681 15.0925C19.2256 15.0925 18.9855 15.1407 18.7618 15.2342C18.538 15.3277 18.3351 15.4647 18.1647 15.6373C17.9943 15.8099 17.8599 16.0146 17.7693 16.2395C17.6787 16.4645 17.6336 16.7052 17.6367 16.9477V25.9515C17.0733 25.4151 16.513 24.8755 15.9557 24.3327C15.6058 24.0069 15.1457 23.8252 14.6675 23.8242C14.3569 23.8264 14.0515 23.904 13.7775 24.0503C13.5035 24.1966 13.2691 24.4073 13.0945 24.6642C12.8516 25.0373 12.7346 25.4784 12.7606 25.9228C12.7866 26.3672 12.9544 26.7916 13.2392 27.1338L17.1773 31.7007C17.5351 32.15 17.8484 32.6329 18.1129 33.1427C18.5611 34.0042 18.8707 34.9309 19.0302 35.8888C18.8947 35.9189 18.7735 35.9942 18.6866 36.1024C18.5997 36.2106 18.5523 36.3452 18.5522 36.484V38.9261C18.5522 39.088 18.6165 39.2433 18.731 39.3578C18.8455 39.4723 19.0008 39.5366 19.1627 39.5366H27.0994C27.2613 39.5366 27.4166 39.4723 27.5311 39.3578C27.6456 39.2433 27.7099 39.088 27.7099 38.9261V36.484C27.7099 36.3221 27.6456 36.1668 27.5311 36.0523C27.4166 35.9378 27.2613 35.8735 27.0994 35.8735H26.8533C26.9732 35.2378 27.1996 34.627 27.5231 34.0667C27.5442 34.0344 27.5637 34.0009 27.5814 33.9666C28.5066 32.3875 28.6256 30.4055 28.6256 28.8526V25.4948C28.6251 25.0093 28.4319 24.5437 28.0886 24.2004C27.7452 23.857 27.2797 23.6639 26.7941 23.6633ZM26.4888 38.3156H19.7732V37.0945H26.4888V38.3156ZM27.4046 28.8526C27.4046 30.2556 27.3039 32.0362 26.5078 33.3887C26.498 33.4016 26.4895 33.4153 26.4812 33.4293C26.0454 34.1843 25.7515 35.0127 25.6143 35.8735H20.2625C20.0926 34.7232 19.732 33.6093 19.1954 32.5777C18.8909 31.9915 18.5296 31.4365 18.1169 30.9208L14.1791 26.3547C14.062 26.2183 13.9913 26.0483 13.9771 25.8691C13.9629 25.69 14.0059 25.5109 14.1 25.3578C14.1618 25.2631 14.2458 25.185 14.3449 25.1305C14.4439 25.076 14.5548 25.0467 14.6678 25.0452C14.8337 25.0447 14.9937 25.1067 15.1159 25.2189C18.0494 28.0745 18.0494 28.0736 18.4838 27.8911C18.5946 27.8439 18.6891 27.7652 18.7555 27.6648C18.822 27.5644 18.8575 27.4468 18.8578 27.3264V16.9477C18.8559 16.8664 18.8704 16.7855 18.9002 16.7099C18.9301 16.6342 18.9748 16.5653 19.0316 16.5072C19.0885 16.449 19.1564 16.4028 19.2313 16.3713C19.3063 16.3398 19.3868 16.3235 19.4681 16.3235C19.5494 16.3235 19.6299 16.3398 19.7049 16.3713C19.7799 16.4028 19.8478 16.449 19.9046 16.5072C19.9615 16.5653 20.0061 16.6342 20.036 16.7099C20.0659 16.7855 20.0803 16.8664 20.0785 16.9477V27.6316C20.0785 27.7935 20.1428 27.9488 20.2573 28.0633C20.3718 28.1778 20.5271 28.2421 20.689 28.2421C20.8509 28.2421 21.0062 28.1778 21.1207 28.0633C21.2352 27.9488 21.2995 27.7935 21.2995 27.6316V22.137C21.2995 21.9751 21.3638 21.8198 21.4783 21.7053C21.5928 21.5908 21.7481 21.5265 21.91 21.5265C22.0719 21.5265 22.2272 21.5908 22.3417 21.7053C22.4562 21.8198 22.5205 21.9751 22.5205 22.137V27.6316C22.5205 27.7935 22.5848 27.9488 22.6993 28.0633C22.8138 28.1778 22.9691 28.2421 23.131 28.2421C23.293 28.2421 23.4482 28.1778 23.5627 28.0633C23.6772 27.9488 23.7415 27.7935 23.7415 27.6316V23.9686C23.7415 23.8066 23.8059 23.6514 23.9204 23.5369C24.0349 23.4224 24.1901 23.358 24.3521 23.358C24.514 23.358 24.6693 23.4224 24.7838 23.5369C24.8983 23.6514 24.9626 23.8066 24.9626 23.9686V27.6316C24.9626 27.7935 25.0269 27.9488 25.1414 28.0633C25.2559 28.1778 25.4112 28.2421 25.5731 28.2421C25.735 28.2421 25.8903 28.1778 26.0048 28.0633C26.1193 27.9488 26.1836 27.7935 26.1836 27.6316V25.4948C26.1836 25.3329 26.2479 25.1776 26.3624 25.0631C26.4769 24.9486 26.6322 24.8843 26.7941 24.8843C26.956 24.8843 27.1113 24.9486 27.2258 25.0631C27.3403 25.1776 27.4046 25.3329 27.4046 25.4948V28.8526Z"/>
</mask>
<path d="M13.6681 37.0945C13.83 37.0945 13.9853 37.0302 14.0998 36.9157C14.2143 36.8012 14.2786 36.646 14.2786 36.484C14.2786 36.3221 14.2143 36.1668 14.0998 36.0523C13.9853 35.9378 13.83 35.8735 13.6681 35.8735H8.17351C8.01159 35.8735 7.85631 35.9378 7.74181 36.0523C7.62732 36.1668 7.563 36.3221 7.563 36.484C7.563 36.646 7.62732 36.8012 7.74181 36.9157C7.85631 37.0302 8.01159 37.0945 8.17351 37.0945H13.6681ZM22.5205 17.6849V19.1458C22.5257 19.147 22.5303 19.1489 22.5355 19.1498C23.6952 18.4726 24.5993 17.4319 25.1077 16.1889C25.616 14.9459 25.7003 13.5699 25.3473 12.2741C24.9944 10.9783 24.224 9.83513 23.1554 9.02159C22.0869 8.20806 20.7799 7.7696 19.437 7.77416C18.094 7.77871 16.79 8.22602 15.7271 9.04679C14.6641 9.86755 13.9015 11.016 13.5573 12.3141C13.2132 13.6122 13.3067 14.9876 13.8235 16.2272C14.3403 17.4667 15.2514 18.5013 16.4157 19.1705V17.6995C15.6244 17.069 15.0485 16.2083 14.7676 15.2364C14.4866 14.2644 14.5145 13.2292 14.8473 12.2738C15.1801 11.3183 15.8015 10.4899 16.6255 9.90283C17.4495 9.3158 18.4355 8.99919 19.4473 8.99676C20.459 8.99433 21.4465 9.3062 22.2733 9.88928C23.1002 10.4724 23.7255 11.2978 24.0629 12.2517C24.4003 13.2055 24.4331 14.2406 24.1568 15.2139C23.8805 16.1871 23.3088 17.0506 22.5205 17.6849Z" fill="white"/>
<path d="M32.7466 5.34796H5.27358C4.788 5.34852 4.32247 5.54167 3.97911 5.88503C3.63576 6.22838 3.44261 6.69391 3.44205 7.17949V20.6107C3.44261 21.0963 3.63576 21.5618 3.97911 21.9052C4.32247 22.2486 4.788 22.4417 5.27358 22.4423H16.4157V21.2213H9.51114C9.37093 19.9838 8.81509 18.8305 7.93446 17.9499C7.05384 17.0692 5.90054 16.5134 4.66307 16.3732V11.4171C5.90054 11.2768 7.05384 10.721 7.93446 9.84038C8.81509 8.95976 9.37093 7.80645 9.51114 6.56898H28.509C28.6492 7.80645 29.2051 8.95976 30.0857 9.84038C30.9663 10.721 32.1196 11.2768 33.3571 11.4171V16.3732C32.1196 16.5134 30.9663 17.0692 30.0857 17.9499C29.2051 18.8305 28.6492 19.9838 28.509 21.2213H25.6799C26.2306 21.4867 26.6883 21.9123 26.9931 22.4423H32.7466C33.2322 22.4417 33.6977 22.2486 34.0411 21.9052C34.3844 21.5618 34.5776 21.0963 34.5781 20.6107V7.17949C34.5776 6.69391 34.3844 6.22838 34.0411 5.88503C33.6977 5.54167 33.2322 5.34852 32.7466 5.34796ZM8.2773 21.2213H5.27358C5.11174 21.221 4.95659 21.1566 4.84215 21.0422C4.72771 20.9277 4.66331 20.7726 4.66307 20.6107V17.607C5.57438 17.7399 6.41843 18.1635 7.06963 18.8147C7.72084 19.4659 8.1444 20.3099 8.2773 21.2213ZM4.66307 10.1832V7.17949C4.66331 7.01765 4.72771 6.8625 4.84215 6.74806C4.95659 6.63362 5.11174 6.56922 5.27358 6.56898H8.2773C8.1444 7.48029 7.72084 8.32434 7.06963 8.97554C6.41843 9.62675 5.57438 10.0503 4.66307 10.1832ZM33.3571 20.6107C33.3569 20.7726 33.2925 20.9277 33.178 21.0422C33.0636 21.1566 32.9084 21.221 32.7466 21.2213H29.7429C29.8758 20.3099 30.2993 19.4659 30.9505 18.8147C31.6017 18.1635 32.4458 17.7399 33.3571 17.607V20.6107ZM33.3571 10.1832C32.4458 10.0503 31.6017 9.62675 30.9505 8.97554C30.2993 8.32434 29.8758 7.48029 29.7429 6.56898H32.7466C32.9084 6.56922 33.0636 6.63362 33.178 6.74806C33.2925 6.8625 33.3569 7.01765 33.3571 7.17949V10.1832Z" fill="white"/>
<path d="M19.5101 10.2418C19.4086 10.2421 19.3114 10.2823 19.2395 10.3539C19.1676 10.4255 19.1268 10.5225 19.1261 10.624V11.0868C18.0577 11.2006 17.59 11.8255 17.59 12.5483C17.59 13.3573 18.1105 13.7385 18.7207 13.9916C19.2158 13.8632 19.7355 13.863 20.2307 13.9909C20.7259 14.1189 21.1804 14.3708 21.5513 14.723C21.1515 13.1857 18.5586 13.5303 18.5586 12.5483C18.5586 12.2238 18.8169 11.907 19.5101 11.907C19.9391 11.9023 20.3549 12.0555 20.6783 12.3374C20.7717 12.4394 20.8996 12.503 21.0373 12.516C21.154 12.5183 21.267 12.4744 21.3514 12.3938C21.4358 12.3131 21.4849 12.2023 21.4878 12.0856C21.4869 11.9924 21.4577 11.9017 21.4042 11.8255C21.2151 11.6099 20.9848 11.4342 20.7269 11.3087C20.469 11.1832 20.1887 11.1105 19.9023 11.0947V10.624C19.9017 10.5731 19.8911 10.5229 19.8711 10.4761C19.851 10.4294 19.822 10.387 19.7855 10.3515C19.7491 10.316 19.706 10.2881 19.6587 10.2692C19.6115 10.2504 19.561 10.2411 19.5101 10.2418Z" fill="white"/>
<path d="M17.3312 38.3156H3.44205C3.11821 38.3156 2.80764 38.1869 2.57865 37.9579C2.34967 37.729 2.22102 37.4184 2.22102 37.0945V2.90591C2.22102 2.58208 2.34967 2.27151 2.57865 2.04252C2.80764 1.81353 3.11821 1.68489 3.44205 1.68489H7.50378L8.64543 3.80581C8.69774 3.90297 8.7754 3.98415 8.87017 4.04069C8.96493 4.09724 9.07325 4.12704 9.1836 4.12694H15.1007C15.2109 4.12693 15.3191 4.09708 15.4138 4.04054C15.5084 3.984 15.586 3.90288 15.6382 3.80581L16.7799 1.68489H20.5364C20.8602 1.68489 21.1708 1.81353 21.3998 2.04252C21.6287 2.27151 21.7574 2.58208 21.7574 2.90591V4.12694H22.9784V2.90591C22.9777 2.25847 22.7202 1.63774 22.2623 1.17993C21.8045 0.722114 21.1838 0.464594 20.5364 0.463867H3.44205C2.7946 0.464594 2.17388 0.722114 1.71606 1.17993C1.25825 1.63774 1.00073 2.25847 1 2.90591V37.0945C1.00081 37.742 1.25835 38.3626 1.71615 38.8204C2.17395 39.2782 2.79462 39.5358 3.44205 39.5366H17.438C17.3677 39.3407 17.3316 39.1342 17.3312 38.9261V38.3156ZM15.3931 1.68489L14.7359 2.90591H9.54777L8.89055 1.68489H15.3931Z" fill="white"/>
<path d="M26.7941 23.6633C26.5822 23.6638 26.3719 23.7013 26.1729 23.7741C26.1443 23.4989 26.0535 23.2337 25.9074 22.9987C25.7613 22.7637 25.5637 22.565 25.3294 22.4176C25.0952 22.2702 24.8306 22.1779 24.5555 22.1478C24.2804 22.1178 24.0021 22.1506 23.7415 22.2439V22.137C23.7424 21.8438 23.6726 21.5546 23.5381 21.2941C23.4036 21.0335 23.2083 20.8091 22.9688 20.6399C22.7293 20.4708 22.4525 20.3618 22.162 20.3222C21.8714 20.2825 21.5756 20.3135 21.2995 20.4123V16.9477C21.3026 16.7052 21.2576 16.4645 21.1669 16.2395C21.0763 16.0146 20.9419 15.8099 20.7715 15.6373C20.6012 15.4647 20.3982 15.3277 20.1745 15.2342C19.9507 15.1407 19.7106 15.0925 19.4681 15.0925C19.2256 15.0925 18.9855 15.1407 18.7618 15.2342C18.538 15.3277 18.3351 15.4647 18.1647 15.6373C17.9943 15.8099 17.8599 16.0146 17.7693 16.2395C17.6787 16.4645 17.6336 16.7052 17.6367 16.9477V25.9515C17.0733 25.4151 16.513 24.8755 15.9557 24.3327C15.6058 24.0069 15.1457 23.8252 14.6675 23.8242C14.3569 23.8264 14.0515 23.904 13.7775 24.0503C13.5035 24.1966 13.2691 24.4073 13.0945 24.6642C12.8516 25.0373 12.7346 25.4784 12.7606 25.9228C12.7866 26.3672 12.9544 26.7916 13.2392 27.1338L17.1773 31.7007C17.5351 32.15 17.8484 32.6329 18.1129 33.1427C18.5611 34.0042 18.8707 34.9309 19.0302 35.8888C18.8947 35.9189 18.7735 35.9942 18.6866 36.1024C18.5997 36.2106 18.5523 36.3452 18.5522 36.484V38.9261C18.5522 39.088 18.6165 39.2433 18.731 39.3578C18.8455 39.4723 19.0008 39.5366 19.1627 39.5366H27.0994C27.2613 39.5366 27.4166 39.4723 27.5311 39.3578C27.6456 39.2433 27.7099 39.088 27.7099 38.9261V36.484C27.7099 36.3221 27.6456 36.1668 27.5311 36.0523C27.4166 35.9378 27.2613 35.8735 27.0994 35.8735H26.8533C26.9732 35.2378 27.1996 34.627 27.5231 34.0667C27.5442 34.0344 27.5637 34.0009 27.5814 33.9666C28.5066 32.3875 28.6256 30.4055 28.6256 28.8526V25.4948C28.6251 25.0093 28.4319 24.5437 28.0886 24.2004C27.7452 23.857 27.2797 23.6639 26.7941 23.6633ZM26.4888 38.3156H19.7732V37.0945H26.4888V38.3156ZM27.4046 28.8526C27.4046 30.2556 27.3039 32.0362 26.5078 33.3887C26.498 33.4016 26.4895 33.4153 26.4812 33.4293C26.0454 34.1843 25.7515 35.0127 25.6143 35.8735H20.2625C20.0926 34.7232 19.732 33.6093 19.1954 32.5777C18.8909 31.9915 18.5296 31.4365 18.1169 30.9208L14.1791 26.3547C14.062 26.2183 13.9913 26.0483 13.9771 25.8691C13.9629 25.69 14.0059 25.5109 14.1 25.3578C14.1618 25.2631 14.2458 25.185 14.3449 25.1305C14.4439 25.076 14.5548 25.0467 14.6678 25.0452C14.8337 25.0447 14.9937 25.1067 15.1159 25.2189C18.0494 28.0745 18.0494 28.0736 18.4838 27.8911C18.5946 27.8439 18.6891 27.7652 18.7555 27.6648C18.822 27.5644 18.8575 27.4468 18.8578 27.3264V16.9477C18.8559 16.8664 18.8704 16.7855 18.9002 16.7099C18.9301 16.6342 18.9748 16.5653 19.0316 16.5072C19.0885 16.449 19.1564 16.4028 19.2313 16.3713C19.3063 16.3398 19.3868 16.3235 19.4681 16.3235C19.5494 16.3235 19.6299 16.3398 19.7049 16.3713C19.7799 16.4028 19.8478 16.449 19.9046 16.5072C19.9615 16.5653 20.0061 16.6342 20.036 16.7099C20.0659 16.7855 20.0803 16.8664 20.0785 16.9477V27.6316C20.0785 27.7935 20.1428 27.9488 20.2573 28.0633C20.3718 28.1778 20.5271 28.2421 20.689 28.2421C20.8509 28.2421 21.0062 28.1778 21.1207 28.0633C21.2352 27.9488 21.2995 27.7935 21.2995 27.6316V22.137C21.2995 21.9751 21.3638 21.8198 21.4783 21.7053C21.5928 21.5908 21.7481 21.5265 21.91 21.5265C22.0719 21.5265 22.2272 21.5908 22.3417 21.7053C22.4562 21.8198 22.5205 21.9751 22.5205 22.137V27.6316C22.5205 27.7935 22.5848 27.9488 22.6993 28.0633C22.8138 28.1778 22.9691 28.2421 23.131 28.2421C23.293 28.2421 23.4482 28.1778 23.5627 28.0633C23.6772 27.9488 23.7415 27.7935 23.7415 27.6316V23.9686C23.7415 23.8066 23.8059 23.6514 23.9204 23.5369C24.0349 23.4224 24.1901 23.358 24.3521 23.358C24.514 23.358 24.6693 23.4224 24.7838 23.5369C24.8983 23.6514 24.9626 23.8066 24.9626 23.9686V27.6316C24.9626 27.7935 25.0269 27.9488 25.1414 28.0633C25.2559 28.1778 25.4112 28.2421 25.5731 28.2421C25.735 28.2421 25.8903 28.1778 26.0048 28.0633C26.1193 27.9488 26.1836 27.7935 26.1836 27.6316V25.4948C26.1836 25.3329 26.2479 25.1776 26.3624 25.0631C26.4769 24.9486 26.6322 24.8843 26.7941 24.8843C26.956 24.8843 27.1113 24.9486 27.2258 25.0631C27.3403 25.1776 27.4046 25.3329 27.4046 25.4948V28.8526Z" fill="white"/>
<path d="M13.6681 37.0945C13.83 37.0945 13.9853 37.0302 14.0998 36.9157C14.2143 36.8012 14.2786 36.646 14.2786 36.484C14.2786 36.3221 14.2143 36.1668 14.0998 36.0523C13.9853 35.9378 13.83 35.8735 13.6681 35.8735H8.17351C8.01159 35.8735 7.85631 35.9378 7.74181 36.0523C7.62732 36.1668 7.563 36.3221 7.563 36.484C7.563 36.646 7.62732 36.8012 7.74181 36.9157C7.85631 37.0302 8.01159 37.0945 8.17351 37.0945H13.6681ZM22.5205 17.6849V19.1458C22.5257 19.147 22.5303 19.1489 22.5355 19.1498C23.6952 18.4726 24.5993 17.4319 25.1077 16.1889C25.616 14.9459 25.7003 13.5699 25.3473 12.2741C24.9944 10.9783 24.224 9.83513 23.1554 9.02159C22.0869 8.20806 20.7799 7.7696 19.437 7.77416C18.094 7.77871 16.79 8.22602 15.7271 9.04679C14.6641 9.86755 13.9015 11.016 13.5573 12.3141C13.2132 13.6122 13.3067 14.9876 13.8235 16.2272C14.3403 17.4667 15.2514 18.5013 16.4157 19.1705V17.6995C15.6244 17.069 15.0485 16.2083 14.7676 15.2364C14.4866 14.2644 14.5145 13.2292 14.8473 12.2738C15.1801 11.3183 15.8015 10.4899 16.6255 9.90283C17.4495 9.3158 18.4355 8.99919 19.4473 8.99676C20.459 8.99433 21.4465 9.3062 22.2733 9.88928C23.1002 10.4724 23.7255 11.2978 24.0629 12.2517C24.4003 13.2055 24.4331 14.2406 24.1568 15.2139C23.8805 16.1871 23.3088 17.0506 22.5205 17.6849Z" stroke="white" stroke-width="0.781455" mask="url(#path-1-outside-1_812_35013)"/>
<path d="M32.7466 5.34796H5.27358C4.788 5.34852 4.32247 5.54167 3.97911 5.88503C3.63576 6.22838 3.44261 6.69391 3.44205 7.17949V20.6107C3.44261 21.0963 3.63576 21.5618 3.97911 21.9052C4.32247 22.2486 4.788 22.4417 5.27358 22.4423H16.4157V21.2213H9.51114C9.37093 19.9838 8.81509 18.8305 7.93446 17.9499C7.05384 17.0692 5.90054 16.5134 4.66307 16.3732V11.4171C5.90054 11.2768 7.05384 10.721 7.93446 9.84038C8.81509 8.95976 9.37093 7.80645 9.51114 6.56898H28.509C28.6492 7.80645 29.2051 8.95976 30.0857 9.84038C30.9663 10.721 32.1196 11.2768 33.3571 11.4171V16.3732C32.1196 16.5134 30.9663 17.0692 30.0857 17.9499C29.2051 18.8305 28.6492 19.9838 28.509 21.2213H25.6799C26.2306 21.4867 26.6883 21.9123 26.9931 22.4423H32.7466C33.2322 22.4417 33.6977 22.2486 34.0411 21.9052C34.3844 21.5618 34.5776 21.0963 34.5781 20.6107V7.17949C34.5776 6.69391 34.3844 6.22838 34.0411 5.88503C33.6977 5.54167 33.2322 5.34852 32.7466 5.34796ZM8.2773 21.2213H5.27358C5.11174 21.221 4.95659 21.1566 4.84215 21.0422C4.72771 20.9277 4.66331 20.7726 4.66307 20.6107V17.607C5.57438 17.7399 6.41843 18.1635 7.06963 18.8147C7.72084 19.4659 8.1444 20.3099 8.2773 21.2213ZM4.66307 10.1832V7.17949C4.66331 7.01765 4.72771 6.8625 4.84215 6.74806C4.95659 6.63362 5.11174 6.56922 5.27358 6.56898H8.2773C8.1444 7.48029 7.72084 8.32434 7.06963 8.97554C6.41843 9.62675 5.57438 10.0503 4.66307 10.1832ZM33.3571 20.6107C33.3569 20.7726 33.2925 20.9277 33.178 21.0422C33.0636 21.1566 32.9084 21.221 32.7466 21.2213H29.7429C29.8758 20.3099 30.2993 19.4659 30.9505 18.8147C31.6017 18.1635 32.4458 17.7399 33.3571 17.607V20.6107ZM33.3571 10.1832C32.4458 10.0503 31.6017 9.62675 30.9505 8.97554C30.2993 8.32434 29.8758 7.48029 29.7429 6.56898H32.7466C32.9084 6.56922 33.0636 6.63362 33.178 6.74806C33.2925 6.8625 33.3569 7.01765 33.3571 7.17949V10.1832Z" stroke="white" stroke-width="0.781455" mask="url(#path-1-outside-1_812_35013)"/>
<path d="M19.5101 10.2418C19.4086 10.2421 19.3114 10.2823 19.2395 10.3539C19.1676 10.4255 19.1268 10.5225 19.1261 10.624V11.0868C18.0577 11.2006 17.59 11.8255 17.59 12.5483C17.59 13.3573 18.1105 13.7385 18.7207 13.9916C19.2158 13.8632 19.7355 13.863 20.2307 13.9909C20.7259 14.1189 21.1804 14.3708 21.5513 14.723C21.1515 13.1857 18.5586 13.5303 18.5586 12.5483C18.5586 12.2238 18.8169 11.907 19.5101 11.907C19.9391 11.9023 20.3549 12.0555 20.6783 12.3374C20.7717 12.4394 20.8996 12.503 21.0373 12.516C21.154 12.5183 21.267 12.4744 21.3514 12.3938C21.4358 12.3131 21.4849 12.2023 21.4878 12.0856C21.4869 11.9924 21.4577 11.9017 21.4042 11.8255C21.2151 11.6099 20.9848 11.4342 20.7269 11.3087C20.469 11.1832 20.1887 11.1105 19.9023 11.0947V10.624C19.9017 10.5731 19.8911 10.5229 19.8711 10.4761C19.851 10.4294 19.822 10.387 19.7855 10.3515C19.7491 10.316 19.706 10.2881 19.6587 10.2692C19.6115 10.2504 19.561 10.2411 19.5101 10.2418Z" stroke="white" stroke-width="0.781455" mask="url(#path-1-outside-1_812_35013)"/>
<path d="M17.3312 38.3156H3.44205C3.11821 38.3156 2.80764 38.1869 2.57865 37.9579C2.34967 37.729 2.22102 37.4184 2.22102 37.0945V2.90591C2.22102 2.58208 2.34967 2.27151 2.57865 2.04252C2.80764 1.81353 3.11821 1.68489 3.44205 1.68489H7.50378L8.64543 3.80581C8.69774 3.90297 8.7754 3.98415 8.87017 4.04069C8.96493 4.09724 9.07325 4.12704 9.1836 4.12694H15.1007C15.2109 4.12693 15.3191 4.09708 15.4138 4.04054C15.5084 3.984 15.586 3.90288 15.6382 3.80581L16.7799 1.68489H20.5364C20.8602 1.68489 21.1708 1.81353 21.3998 2.04252C21.6287 2.27151 21.7574 2.58208 21.7574 2.90591V4.12694H22.9784V2.90591C22.9777 2.25847 22.7202 1.63774 22.2623 1.17993C21.8045 0.722114 21.1838 0.464594 20.5364 0.463867H3.44205C2.7946 0.464594 2.17388 0.722114 1.71606 1.17993C1.25825 1.63774 1.00073 2.25847 1 2.90591V37.0945C1.00081 37.742 1.25835 38.3626 1.71615 38.8204C2.17395 39.2782 2.79462 39.5358 3.44205 39.5366H17.438C17.3677 39.3407 17.3316 39.1342 17.3312 38.9261V38.3156ZM15.3931 1.68489L14.7359 2.90591H9.54777L8.89055 1.68489H15.3931Z" stroke="white" stroke-width="0.781455" mask="url(#path-1-outside-1_812_35013)"/>
<path d="M26.7941 23.6633C26.5822 23.6638 26.3719 23.7013 26.1729 23.7741C26.1443 23.4989 26.0535 23.2337 25.9074 22.9987C25.7613 22.7637 25.5637 22.565 25.3294 22.4176C25.0952 22.2702 24.8306 22.1779 24.5555 22.1478C24.2804 22.1178 24.0021 22.1506 23.7415 22.2439V22.137C23.7424 21.8438 23.6726 21.5546 23.5381 21.2941C23.4036 21.0335 23.2083 20.8091 22.9688 20.6399C22.7293 20.4708 22.4525 20.3618 22.162 20.3222C21.8714 20.2825 21.5756 20.3135 21.2995 20.4123V16.9477C21.3026 16.7052 21.2576 16.4645 21.1669 16.2395C21.0763 16.0146 20.9419 15.8099 20.7715 15.6373C20.6012 15.4647 20.3982 15.3277 20.1745 15.2342C19.9507 15.1407 19.7106 15.0925 19.4681 15.0925C19.2256 15.0925 18.9855 15.1407 18.7618 15.2342C18.538 15.3277 18.3351 15.4647 18.1647 15.6373C17.9943 15.8099 17.8599 16.0146 17.7693 16.2395C17.6787 16.4645 17.6336 16.7052 17.6367 16.9477V25.9515C17.0733 25.4151 16.513 24.8755 15.9557 24.3327C15.6058 24.0069 15.1457 23.8252 14.6675 23.8242C14.3569 23.8264 14.0515 23.904 13.7775 24.0503C13.5035 24.1966 13.2691 24.4073 13.0945 24.6642C12.8516 25.0373 12.7346 25.4784 12.7606 25.9228C12.7866 26.3672 12.9544 26.7916 13.2392 27.1338L17.1773 31.7007C17.5351 32.15 17.8484 32.6329 18.1129 33.1427C18.5611 34.0042 18.8707 34.9309 19.0302 35.8888C18.8947 35.9189 18.7735 35.9942 18.6866 36.1024C18.5997 36.2106 18.5523 36.3452 18.5522 36.484V38.9261C18.5522 39.088 18.6165 39.2433 18.731 39.3578C18.8455 39.4723 19.0008 39.5366 19.1627 39.5366H27.0994C27.2613 39.5366 27.4166 39.4723 27.5311 39.3578C27.6456 39.2433 27.7099 39.088 27.7099 38.9261V36.484C27.7099 36.3221 27.6456 36.1668 27.5311 36.0523C27.4166 35.9378 27.2613 35.8735 27.0994 35.8735H26.8533C26.9732 35.2378 27.1996 34.627 27.5231 34.0667C27.5442 34.0344 27.5637 34.0009 27.5814 33.9666C28.5066 32.3875 28.6256 30.4055 28.6256 28.8526V25.4948C28.6251 25.0093 28.4319 24.5437 28.0886 24.2004C27.7452 23.857 27.2797 23.6639 26.7941 23.6633ZM26.4888 38.3156H19.7732V37.0945H26.4888V38.3156ZM27.4046 28.8526C27.4046 30.2556 27.3039 32.0362 26.5078 33.3887C26.498 33.4016 26.4895 33.4153 26.4812 33.4293C26.0454 34.1843 25.7515 35.0127 25.6143 35.8735H20.2625C20.0926 34.7232 19.732 33.6093 19.1954 32.5777C18.8909 31.9915 18.5296 31.4365 18.1169 30.9208L14.1791 26.3547C14.062 26.2183 13.9913 26.0483 13.9771 25.8691C13.9629 25.69 14.0059 25.5109 14.1 25.3578C14.1618 25.2631 14.2458 25.185 14.3449 25.1305C14.4439 25.076 14.5548 25.0467 14.6678 25.0452C14.8337 25.0447 14.9937 25.1067 15.1159 25.2189C18.0494 28.0745 18.0494 28.0736 18.4838 27.8911C18.5946 27.8439 18.6891 27.7652 18.7555 27.6648C18.822 27.5644 18.8575 27.4468 18.8578 27.3264V16.9477C18.8559 16.8664 18.8704 16.7855 18.9002 16.7099C18.9301 16.6342 18.9748 16.5653 19.0316 16.5072C19.0885 16.449 19.1564 16.4028 19.2313 16.3713C19.3063 16.3398 19.3868 16.3235 19.4681 16.3235C19.5494 16.3235 19.6299 16.3398 19.7049 16.3713C19.7799 16.4028 19.8478 16.449 19.9046 16.5072C19.9615 16.5653 20.0061 16.6342 20.036 16.7099C20.0659 16.7855 20.0803 16.8664 20.0785 16.9477V27.6316C20.0785 27.7935 20.1428 27.9488 20.2573 28.0633C20.3718 28.1778 20.5271 28.2421 20.689 28.2421C20.8509 28.2421 21.0062 28.1778 21.1207 28.0633C21.2352 27.9488 21.2995 27.7935 21.2995 27.6316V22.137C21.2995 21.9751 21.3638 21.8198 21.4783 21.7053C21.5928 21.5908 21.7481 21.5265 21.91 21.5265C22.0719 21.5265 22.2272 21.5908 22.3417 21.7053C22.4562 21.8198 22.5205 21.9751 22.5205 22.137V27.6316C22.5205 27.7935 22.5848 27.9488 22.6993 28.0633C22.8138 28.1778 22.9691 28.2421 23.131 28.2421C23.293 28.2421 23.4482 28.1778 23.5627 28.0633C23.6772 27.9488 23.7415 27.7935 23.7415 27.6316V23.9686C23.7415 23.8066 23.8059 23.6514 23.9204 23.5369C24.0349 23.4224 24.1901 23.358 24.3521 23.358C24.514 23.358 24.6693 23.4224 24.7838 23.5369C24.8983 23.6514 24.9626 23.8066 24.9626 23.9686V27.6316C24.9626 27.7935 25.0269 27.9488 25.1414 28.0633C25.2559 28.1778 25.4112 28.2421 25.5731 28.2421C25.735 28.2421 25.8903 28.1778 26.0048 28.0633C26.1193 27.9488 26.1836 27.7935 26.1836 27.6316V25.4948C26.1836 25.3329 26.2479 25.1776 26.3624 25.0631C26.4769 24.9486 26.6322 24.8843 26.7941 24.8843C26.956 24.8843 27.1113 24.9486 27.2258 25.0631C27.3403 25.1776 27.4046 25.3329 27.4046 25.4948V28.8526Z" stroke="white" stroke-width="0.781455" mask="url(#path-1-outside-1_812_35013)"/>
</svg>
