<svg width="40" height="40" viewBox="0 0 40 40" fill="none" xmlns="http://www.w3.org/2000/svg">
<g clip-path="url(#clip0_1158_3149)">
<path d="M20 40C31.0457 40 40 31.0457 40 20C40 8.9543 31.0457 0 20 0C8.9543 0 0 8.9543 0 20C0 31.0457 8.9543 40 20 40Z" fill="white" fill-opacity="0.5"/>
<path d="M8.84574 20.4451C8.85546 20.6786 8.91109 20.9078 9.00945 21.1197C9.10781 21.3316 9.24698 21.522 9.41899 21.6801C9.59101 21.8382 9.7925 21.9609 10.0119 22.041C10.2314 22.1212 10.4645 22.1573 10.6979 22.1474L25.2234 21.541L24.67 22.1431C24.3509 22.4902 24.1828 22.9499 24.2027 23.421C24.2226 23.892 24.4288 24.3359 24.7759 24.655C25.1231 24.974 25.5828 25.1421 26.0538 25.1222C26.5249 25.1024 26.9688 24.8962 27.2879 24.549L30.6923 20.8447C31.0114 20.4976 31.1794 20.0379 31.1596 19.5668C31.1397 19.0958 30.9335 18.6519 30.5864 18.3328L26.8821 14.9284C26.5349 14.6093 26.0752 14.4412 25.6041 14.4611C25.1331 14.481 24.6892 14.6872 24.3701 15.0343C24.0511 15.3815 23.883 15.8412 23.9029 16.3122C23.9227 16.7833 24.1289 17.2272 24.4761 17.5462L24.9604 17.9914L10.548 18.593C10.3145 18.6027 10.0853 18.6583 9.87341 18.7567C9.66149 18.8551 9.47105 18.9942 9.31296 19.1662C9.15487 19.3382 9.03223 19.5397 8.95206 19.7592C8.87189 19.9786 8.83577 20.2117 8.84574 20.4451Z" fill="white"/>
</g>
<defs>
<clipPath id="clip0_1158_3149">
<rect width="40" height="40" fill="white"/>
</clipPath>
</defs>
</svg>
