<svg width="80" height="80" viewBox="0 0 80 80" fill="none" xmlns="http://www.w3.org/2000/svg">
<path d="M49 56.1429H56.4286L58 71.5714C57.9293 71.9253 57.8399 72.0809 57.4286 72.1429H53.5714L49 56.1429Z" fill="black"/>
<path d="M31.7143 56.1429H34.4286L30.1429 66.5714H29L31.7143 56.1429Z" fill="black"/>
<path d="M23.8571 21.8571C23.8571 20.2792 25.1363 19 26.7143 19H53.2857C54.8637 19 56.1429 20.2792 56.1429 21.8571V34.1429C56.1429 35.7208 54.8637 37 53.2857 37H26.7143C25.1363 37 23.8571 35.7208 23.8571 34.1429V21.8571Z" fill="black"/>
<path d="M26.1429 37.8571H31.8571V46.4286H26.1429V37.8571Z" fill="black"/>
<path d="M48.1429 37.8571H53.8571V46.4286H48.1429V37.8571Z" fill="black"/>
<path d="M22.1429 54.8571H58V50.5714C58 50.5714 57.1808 49.2201 56.4286 48.5714C55.653 47.9026 54.1429 47.2857 54.1429 47.2857H25.8571C25.8571 47.2857 24.4481 48.1233 23.7143 48.8571C22.9805 49.5909 22.1429 51 22.1429 51V54.8571Z" fill="black"/>
<path d="M23.4286 56.1429H30.7143L26.2857 72H22.5714C22.1885 71.9432 22.03 71.8725 22 71.5714L23.4286 56.1429Z" fill="black"/>
<path d="M45.2857 56.1429H48L51 66.5714H49.8571L45.2857 56.1429Z" fill="black"/>
</svg>
