<svg width="52" height="40" viewBox="0 0 52 40" fill="none" xmlns="http://www.w3.org/2000/svg">
<path d="M36.9123 31.7715H18.9159C18.4162 31.7715 17.937 31.573 17.5836 31.2197C17.2303 30.8663 17.0318 30.3871 17.0318 29.8874C17.0318 29.3878 17.2303 28.9085 17.5836 28.5552C17.937 28.2019 18.4162 28.0034 18.9159 28.0034H36.9123C37.412 28.0034 37.8913 28.2019 38.2446 28.5552C38.5979 28.9085 38.7964 29.3878 38.7964 29.8874C38.7964 30.3871 38.5979 30.8663 38.2446 31.2197C37.8913 31.573 37.412 31.7715 36.9123 31.7715ZM47.2822 31.7715H46.83C46.3303 31.7715 45.8511 31.573 45.4978 31.2197C45.1445 30.8663 44.946 30.3871 44.946 29.8874C44.946 29.3878 45.1445 28.9085 45.4978 28.5552C45.8511 28.2019 46.3303 28.0034 46.83 28.0034H47.2822C47.4062 28.0054 47.5293 27.9827 47.6444 27.9366C47.7595 27.8906 47.8644 27.822 47.9527 27.7351C48.0411 27.6481 48.1113 27.5444 48.1592 27.43C48.2071 27.3157 48.2318 27.1929 48.2317 27.0689V20.6028C48.2311 20.3908 48.1595 20.1851 48.0284 20.0185C47.8973 19.8518 47.7142 19.7339 47.5083 19.6834H36.3999C35.1513 19.6834 33.9536 19.1884 33.0693 18.307C32.185 17.4255 31.6862 16.2294 31.6822 14.9808V4.88229C31.6843 4.759 31.6615 4.63657 31.6152 4.52227C31.569 4.40798 31.5002 4.30415 31.4131 4.21696C31.3259 4.12978 31.222 4.06102 31.1077 4.01478C30.9934 3.96854 30.871 3.94576 30.7477 3.94779H8.54604C8.04636 3.94779 7.56714 3.7493 7.21381 3.39597C6.86049 3.04264 6.66199 2.56342 6.66199 2.06374C6.66199 1.56406 6.86049 1.08484 7.21381 0.731514C7.56714 0.378185 8.04636 0.179687 8.54604 0.179688H30.7477C31.3653 0.179687 31.9768 0.301324 32.5473 0.537652C33.1179 0.773979 33.6363 1.12037 34.073 1.55705C34.5096 1.99372 34.856 2.51213 35.0924 3.08268C35.3287 3.65322 35.4503 4.26473 35.4503 4.88229V14.9507C35.4503 15.0747 35.475 15.1974 35.5229 15.3118C35.5708 15.4262 35.641 15.5299 35.7293 15.6168C35.8177 15.7038 35.9225 15.7723 36.0376 15.8184C36.1528 15.8645 36.2759 15.8872 36.3999 15.8852H47.2822C47.6263 15.8896 47.9693 15.9249 48.3071 15.9907L48.6387 16.0962C49.6146 16.3815 50.4709 16.9774 51.0775 17.7934C51.6841 18.6095 52.0079 19.6011 51.9999 20.6179V27.084C51.9919 28.3299 51.4913 29.5222 50.6075 30.4004C49.7236 31.2786 48.5282 31.7715 47.2822 31.7715Z" fill="#FEFEFE"/>
<path d="M47.9303 19.7435C47.543 19.7434 47.1653 19.623 46.8493 19.3989C46.5334 19.1747 46.2949 18.858 46.1669 18.4925L43.1524 10.1122C43.0713 9.9991 42.9651 9.90627 42.8423 9.84091C42.7194 9.77555 42.5831 9.73944 42.444 9.73537H33.5362C33.0365 9.73537 32.5573 9.53687 32.2039 9.18355C31.8506 8.83022 31.6521 8.351 31.6521 7.85132C31.6521 7.35164 31.8506 6.87242 32.2039 6.51909C32.5573 6.16576 33.0365 5.96726 33.5362 5.96726H42.444C43.2792 5.97052 44.0981 6.19906 44.8144 6.62879C45.5306 7.05853 46.1176 7.67354 46.5135 8.409C46.56 8.49653 46.6003 8.58719 46.6341 8.6803L49.6486 17.2264C49.8134 17.6982 49.7856 18.216 49.5711 18.6674C49.3567 19.1189 48.9729 19.4676 48.5031 19.638C48.3174 19.697 48.1249 19.7325 47.9303 19.7435ZM41.8712 39.8199C40.5149 39.8199 39.1889 39.4177 38.0611 38.6642C36.9334 37.9106 36.0544 36.8395 35.5353 35.5864C35.0162 34.3333 34.8804 32.9544 35.145 31.6241C35.4097 30.2938 36.0628 29.0718 37.0219 28.1127C37.981 27.1536 39.203 26.5004 40.5333 26.2358C41.8636 25.9712 43.2425 26.107 44.4957 26.6261C45.7488 27.1451 46.8198 28.0241 47.5734 29.1519C48.327 30.2797 48.7292 31.6056 48.7292 32.962C48.7292 34.7808 48.0066 36.5252 46.7205 37.8113C45.4344 39.0974 43.6901 39.8199 41.8712 39.8199ZM41.8712 29.8721C41.2571 29.8572 40.6525 30.0256 40.1346 30.3558C39.6166 30.6861 39.2089 31.1633 38.9634 31.7264C38.718 32.2895 38.6459 32.913 38.7565 33.5173C38.8671 34.1215 39.1552 34.6791 39.5842 35.1188C40.0132 35.5585 40.5635 35.8603 41.1648 35.9858C41.7661 36.1112 42.3912 36.0546 42.9602 35.8231C43.5292 35.5917 44.0163 35.1958 44.3593 34.6862C44.7023 34.1766 44.8855 33.5763 44.8857 32.962C44.886 32.1554 44.5708 31.3807 44.0075 30.8034C43.4443 30.226 42.6776 29.8918 41.8712 29.8721ZM13.942 39.8199C12.5856 39.8199 11.2597 39.4177 10.1319 38.6642C9.00416 37.9106 8.12516 36.8395 7.60609 35.5864C7.08703 34.3333 6.95122 32.9544 7.21584 31.6241C7.48045 30.2938 8.13361 29.0718 9.09271 28.1127C10.0518 27.1536 11.2738 26.5004 12.6041 26.2358C13.9344 25.9712 15.3133 26.107 16.5664 26.6261C17.8196 27.1451 18.8906 28.0241 19.6442 29.1519C20.3978 30.2797 20.8 31.6056 20.8 32.962C20.8 34.7808 20.0774 36.5252 18.7913 37.8113C17.5052 39.0974 15.7609 39.8199 13.942 39.8199ZM13.942 29.8721C13.3309 29.8721 12.7335 30.0534 12.2254 30.3929C11.7173 30.7324 11.3212 31.215 11.0874 31.7796C10.8535 32.3442 10.7923 32.9654 10.9115 33.5648C11.0308 34.1642 11.325 34.7147 11.7572 35.1468C12.1893 35.579 12.7398 35.8732 13.3392 35.9925C13.9386 36.1117 14.5599 36.0505 15.1245 35.8166C15.689 35.5828 16.1716 35.1867 16.5111 34.6786C16.8506 34.1705 17.0319 33.5731 17.0319 32.962C17.0319 32.1425 16.7063 31.3566 16.1269 30.7771C15.5474 30.1977 14.7615 29.8721 13.942 29.8721Z" fill="#FEFEFE"/>
<path d="M33.5362 31.7712C33.2882 31.7732 33.0423 31.7259 32.8128 31.6319C32.5833 31.5379 32.3748 31.3992 32.1995 31.2239C32.0241 31.0485 31.8854 30.84 31.7914 30.6105C31.6975 30.3811 31.6501 30.1352 31.6521 29.8872V13.413C31.6521 12.9133 31.8506 12.4341 32.2039 12.0808C32.5573 11.7275 33.0365 11.529 33.5362 11.529C34.0358 11.529 34.5151 11.7275 34.8684 12.0808C35.2217 12.4341 35.4202 12.9133 35.4202 13.413V29.8872C35.4222 30.1352 35.3749 30.3811 35.2809 30.6105C35.1869 30.84 35.0482 31.0485 34.8729 31.2239C34.6975 31.3992 34.489 31.5379 34.2595 31.6319C34.03 31.7259 33.7841 31.7732 33.5362 31.7712ZM14.2284 13.4733H1.88405C1.38437 13.4733 0.905155 13.2748 0.551827 12.9215C0.198498 12.5682 0 12.0889 0 11.5893C0 11.0896 0.198498 10.6104 0.551827 10.257C0.905155 9.9037 1.38437 9.7052 1.88405 9.7052H14.2284C14.7281 9.7052 15.2073 9.9037 15.5606 10.257C15.9139 10.6104 16.1124 11.0896 16.1124 11.5893C16.1124 12.0889 15.9139 12.5682 15.5606 12.9215C15.2073 13.2748 14.7281 13.4733 14.2284 13.4733ZM16.5495 21.8837H10.0985C9.59884 21.8837 9.11963 21.6852 8.7663 21.3319C8.41297 20.9786 8.21447 20.4993 8.21447 19.9997C8.21447 19.5 8.41297 19.0208 8.7663 18.6674C9.11963 18.3141 9.59884 18.1156 10.0985 18.1156H16.5495C17.0492 18.1156 17.5284 18.3141 17.8818 18.6674C18.2351 19.0208 18.4336 19.5 18.4336 19.9997C18.4336 20.4993 18.2351 20.9786 17.8818 21.3319C17.5284 21.6852 17.0492 21.8837 16.5495 21.8837Z" fill="#FEFEFE"/>
</svg>
