<svg width="80" height="80" viewBox="0 0 80 80" fill="none" xmlns="http://www.w3.org/2000/svg">
<path d="M15 63.9911V19H61.9673V36.5489C61.9673 36.5489 52.7382 31.4844 52.4409 32.0733C51.8387 33.2664 51.444 35.7244 51.444 35.7244C47.6777 33.0156 45.3065 32.7998 42.1391 33.0156C42.1391 33.0156 42.5364 36.1717 43.9115 37.8444C44.8009 38.9264 46.57 40.2 46.57 40.2C48.6747 41.3778 48.6747 41.3778 51.2224 42.5556C-nan -nan 51.2224 48.68 51.2224 48.68C51.2224 48.68 49.3175 51.8721 49.3393 54.4511C49.3611 57.0301 51.444 63.9911 51.444 63.9911H15Z" fill="#0B0404"/>
<path d="M32.1032 31.0133H41.5853V33.5338H32.1032V31.0133ZM32.1032 36.0542H41.5853V38.5747H32.1032V36.0542ZM32.1032 41.0951H41.5853V43.6156H32.1032V41.0951ZM20.2506 43.6156H27.3621C28.6659 43.6156 29.7327 42.4814 29.7327 41.0951V33.5338C29.7327 32.1475 28.6659 31.0133 27.3621 31.0133H20.2506C18.9468 31.0133 17.88 32.1475 17.88 33.5338V41.0951C17.88 42.4814 18.9468 43.6156 20.2506 43.6156ZM21.7321 38.2596L23.2137 40.1626L25.2879 37.3144L27.9548 41.0951H19.6579L21.7321 38.2596Z" fill="white"/>
<path d="M56.4325 53.06C56.9607 53.06 57.4838 52.9494 57.9718 52.7344C58.4598 52.5195 58.9032 52.2045 59.2767 51.8074C59.6503 51.4102 59.9465 50.9388 60.1487 50.4199C60.3508 49.901 60.4549 49.3449 60.4549 48.7832V42.6735L54.4105 38.3891C53.6824 37.873 53.1433 37.1064 52.8837 36.2179C52.6241 35.3294 52.6598 34.3729 52.9847 33.509L63.9026 39.0077L67.4078 48.5908C67.8181 49.714 67.9872 50.9205 67.9027 52.1221C67.8182 53.3237 67.4822 54.4901 66.9194 55.5359L64.2294 60.5444C63.9454 61.0724 63.7694 61.6584 63.7131 62.2638C63.6568 62.8692 63.7214 63.4804 63.9026 64.0574H53.5594" fill="black"/>
<path d="M66.2011 71.389V66.5013H51.2609V71.389H66.2011Z" fill="#596060"/>
<path d="M52.9847 71.389V66.5013H51.2609V71.389H52.9847Z" fill="#4C5657"/>
<path d="M50.6862 71.389V66.5013C50.6862 66.3393 50.7468 66.1838 50.8545 66.0693C50.9623 65.9547 51.1085 65.8903 51.2609 65.8903H66.2011C66.3535 65.8903 66.4997 65.9547 66.6074 66.0693C66.7152 66.1838 66.7758 66.3393 66.7758 66.5013V71.389C66.7758 71.5511 66.7152 71.7065 66.6074 71.8211C66.4997 71.9356 66.3535 72 66.2011 72C66.0487 72 65.9026 71.9356 65.7948 71.8211C65.687 71.7065 65.6265 71.5511 65.6265 71.389V67.1123H51.8355V71.389C51.8355 71.5511 51.7749 71.7065 51.6672 71.8211C51.5594 71.9356 51.4133 72 51.2609 72C51.1085 72 50.9623 71.9356 50.8545 71.8211C50.7468 71.7065 50.6862 71.5511 50.6862 71.389Z" fill="#D9D9D9"/>
<path d="M65.0519 66.5013V64.0574H52.4101V66.5013H65.0519Z" fill="#EAF2FF"/>
<path d="M54.134 66.5013V64.0574H52.4101V66.5013H54.134Z" fill="#C1D1F7"/>
<path d="M51.8355 66.5013V64.0574C51.8355 63.8954 51.896 63.74 52.0038 63.6254C52.1116 63.5108 52.2577 63.4465 52.4101 63.4465H65.0519C65.2043 63.4465 65.3504 63.5108 65.4582 63.6254C65.566 63.74 65.6265 63.8954 65.6265 64.0574V66.5013C65.6265 66.6633 65.566 66.8187 65.4582 66.9333C65.3504 67.0479 65.2043 67.1123 65.0519 67.1123H52.4101C52.2577 67.1123 52.1116 67.0479 52.0038 66.9333C51.896 66.8187 51.8355 66.6633 51.8355 66.5013ZM52.9847 64.6684V65.8903H64.4772V64.6684H52.9847Z" fill="#D9D9D9"/>
<path d="M52.9847 64.0574C52.9847 63.8954 53.0453 63.74 53.153 63.6254C53.2608 63.5108 53.407 63.4465 53.5594 63.4465H63.1743C63.0138 62.3428 63.21 61.2139 63.731 60.2442L66.4238 55.2328C66.9435 54.2656 67.2535 53.1872 67.331 52.0764C67.4085 50.9656 67.2517 49.8504 66.872 48.8122L66.0489 46.5608C66.0202 46.4858 66.0059 46.4055 66.0068 46.3245C66.0076 46.2435 66.0236 46.1636 66.0537 46.0892C66.0839 46.0149 66.1277 45.9477 66.1825 45.8915C66.2373 45.8353 66.3021 45.7912 66.373 45.7618C66.444 45.7325 66.5198 45.7184 66.5959 45.7205C66.672 45.7225 66.747 45.7406 66.8165 45.7738C66.886 45.8069 66.9486 45.8544 67.0006 45.9134C67.0527 45.9725 67.0932 46.042 67.1198 46.1179L67.943 48.3693C68.3849 49.577 68.5675 50.8745 68.4774 52.1669C68.3873 53.4592 68.0268 54.7139 67.4222 55.8391L64.7286 60.8498C64.4852 61.3031 64.3344 61.8058 64.286 62.3252C64.2376 62.8446 64.2927 63.369 64.4478 63.8642C64.4766 63.956 64.4845 64.0539 64.4707 64.1496C64.457 64.2453 64.4221 64.3361 64.3688 64.4147C64.3156 64.4932 64.2455 64.5572 64.1645 64.6013C64.0834 64.6454 63.9937 64.6684 63.9026 64.6684H53.5594C53.407 64.6684 53.2608 64.604 53.153 64.4894C53.0453 64.3749 52.9847 64.2195 52.9847 64.0574ZM52.4511 33.2799C52.4804 33.2027 52.5243 33.1326 52.58 33.0741C52.6357 33.0156 52.7021 32.9698 52.7751 32.9395C52.8481 32.9093 52.9262 32.8952 53.0045 32.8982C53.0827 32.9012 53.1596 32.9211 53.2304 32.9569L64.1483 38.4556C64.2801 38.5229 64.3829 38.6412 64.4356 38.7863L65.9993 43.063C66.0279 43.1381 66.0422 43.2184 66.0414 43.2994C66.0405 43.3803 66.0246 43.4603 65.9944 43.5346C65.9642 43.609 65.9205 43.6762 65.8657 43.7324C65.8108 43.7886 65.7461 43.8327 65.6751 43.862C65.6041 43.8914 65.5284 43.9054 65.4523 43.9034C65.3761 43.9013 65.3011 43.8832 65.2317 43.8501C65.1622 43.817 65.0996 43.7695 65.0475 43.7104C64.9954 43.6513 64.9549 43.5819 64.9283 43.506L63.4472 39.4583L53.3439 34.3667C53.2263 35.0319 53.2946 35.7192 53.5405 36.3436C53.7864 36.968 54.199 37.502 54.7273 37.8797L60.7724 42.1642C60.8514 42.2199 60.9163 42.2956 60.9612 42.3845C61.006 42.4733 61.0295 42.5727 61.0295 42.6735V48.7832C61.0282 50.0791 60.5434 51.3215 59.6816 52.2378C58.8198 53.1541 57.6513 53.6696 56.4325 53.671C56.2801 53.671 56.1339 53.6066 56.0262 53.492C55.9184 53.3774 55.8579 53.222 55.8579 53.06C55.8579 52.898 55.9184 52.7426 56.0262 52.628C56.1339 52.5134 56.2801 52.449 56.4325 52.449C57.3466 52.448 58.223 52.0615 58.8694 51.3742C59.5157 50.687 59.8793 49.7551 59.8802 48.7832V43.0004L54.0916 38.897C53.2563 38.3004 52.6381 37.4179 52.3397 36.3961C52.0412 35.3743 52.0805 34.2747 52.4511 33.2799Z" fill="#D9D9D9"/>
<path d="M70.0646 48.2891L47.6146 34.6463L45.9038 37.829L68.3538 51.4717L70.0646 48.2891Z" fill="#565656"/>
<path d="M68.9931 50.2801L46.6208 36.6822L47.691 34.692L47.6134 34.6454L45.9025 37.8278L68.3517 51.4722L68.9931 50.2801Z" fill="black"/>
<path d="M45.404 37.5246L47.1149 34.3422C47.1522 34.2725 47.2021 34.2112 47.2617 34.1619C47.3212 34.1127 47.3894 34.0764 47.4621 34.0551C47.5349 34.0338 47.6109 34.028 47.6858 34.0379C47.7607 34.0479 47.833 34.0734 47.8986 34.1131L70.3478 47.7591C70.4135 47.7987 70.4712 47.8518 70.5176 47.9152C70.564 47.9786 70.5982 48.0511 70.6182 48.1286C70.6382 48.206 70.6436 48.2869 70.6342 48.3666C70.6248 48.4463 70.6007 48.5233 70.5633 48.5931L68.8523 51.7754C68.815 51.8453 68.7651 51.9067 68.7055 51.956C68.6459 52.0053 68.5777 52.0417 68.5048 52.063C68.432 52.0842 68.3559 52.09 68.2809 52.08C68.2059 52.07 68.1336 52.0443 68.0679 52.0046L45.6173 38.3586C45.5518 38.3187 45.4943 38.2655 45.4481 38.2021C45.4019 38.1386 45.368 38.066 45.3481 37.9886C45.3283 37.9111 45.3231 37.8303 45.3327 37.7507C45.3422 37.6711 45.3665 37.5943 45.404 37.5246ZM47.8275 35.4786L46.6868 37.601L68.1405 50.639L69.2811 48.5167L47.8275 35.4786Z" fill="#D9D9D9"/>
<path d="M47.6134 34.6454L43.2664 34.1139L45.9025 37.8278L47.6134 34.6454Z" fill="black"/>
<path d="M43.3317 33.509L47.6795 34.0436C47.7738 34.0555 47.8639 34.0921 47.9416 34.15C48.0194 34.2079 48.0824 34.2855 48.1251 34.3756C48.1678 34.4658 48.1888 34.5658 48.1863 34.6668C48.1837 34.7677 48.1577 34.8664 48.1105 34.954L46.3995 38.1363C46.3519 38.2236 46.2846 38.297 46.2037 38.3499C46.1229 38.4028 46.031 38.4336 45.9362 38.4395C45.8414 38.4454 45.7468 38.4262 45.6607 38.3837C45.5746 38.3412 45.4997 38.2767 45.4428 38.1959L42.8074 34.482C42.7403 34.3865 42.7009 34.2723 42.6941 34.1533C42.6873 34.0343 42.7133 33.9158 42.7691 33.8124C42.8248 33.709 42.9078 33.6252 43.0077 33.5713C43.1077 33.5174 43.2203 33.4957 43.3317 33.509ZM46.6825 35.1479L44.5327 34.8837L45.8364 36.7166L46.6825 35.1479Z" fill="#D9D9D9"/>
<path d="M74.1956 52.9134C74.308 52.7044 74.3806 52.474 74.4092 52.2352C74.4379 51.9964 74.422 51.754 74.3625 51.5217C74.303 51.2894 74.201 51.0719 74.0625 50.8816C73.9239 50.6912 73.7514 50.5317 73.5549 50.4122L72.058 49.5026L70.3471 52.685L71.8439 53.5946C72.2408 53.8357 72.7114 53.8994 73.1524 53.7717C73.5934 53.6439 73.9686 53.3352 74.1956 52.9134Z" fill="#596060"/>
<path d="M74.4168 51.8488C74.1539 52.1622 73.7976 52.3701 73.4077 52.4377C73.0178 52.5052 72.6179 52.4284 72.2749 52.2199L71.0136 51.4516L70.3499 52.685L71.8439 53.5946C73.0499 54.3278 74.5332 53.3151 74.4168 51.8488Z" fill="#4C5657"/>
<path d="M69.8486 52.3818L71.5595 49.1994C71.5968 49.1297 71.6467 49.0684 71.7062 49.0192C71.7658 48.9699 71.8339 48.9336 71.9067 48.9123C71.9795 48.891 72.0555 48.8852 72.1304 48.8952C72.2052 48.9051 72.2776 48.9307 72.3432 48.9703L73.8401 49.8807C74.1024 50.0399 74.3327 50.2526 74.5178 50.5065C74.7029 50.7604 74.8391 51.0505 74.9187 51.3604C74.9983 51.6703 75.0197 51.9938 74.9817 52.3125C74.9438 52.6311 74.8471 52.9387 74.6973 53.2177C74.5475 53.4967 74.3475 53.7415 74.1087 53.9383C73.8699 54.1351 73.597 54.2799 73.3056 54.3646C73.0142 54.4492 72.7099 54.472 72.4102 54.4316C72.1105 54.3912 71.8212 54.2885 71.5588 54.1292L70.0619 53.2127C69.9303 53.1323 69.8341 52.9997 69.7941 52.844C69.7541 52.6884 69.7737 52.5222 69.8486 52.3818ZM72.272 50.3366L71.1314 52.4582L72.1291 53.0646C72.3937 53.2254 72.7076 53.2679 73.0016 53.1826C73.2957 53.0974 73.5458 52.8915 73.6971 52.6102C73.7719 52.4706 73.82 52.3168 73.8388 52.1575C73.8576 51.9982 73.8466 51.8364 73.8066 51.6816C73.7666 51.5268 73.6983 51.3818 73.6055 51.2551C73.5128 51.1284 73.3975 51.0223 73.2661 50.943L72.272 50.3366Z" fill="#D9D9D9"/>
<path d="M70.3481 52.6868L72.0589 49.5042L70.0634 48.2915L68.3526 51.4742L70.3481 52.6868Z" fill="#F6F6F6"/>
<path d="M72.058 49.5026L71.826 49.3614L70.778 51.3103L69.0146 50.2389L68.3517 51.4722L70.3471 52.685L72.058 49.5026Z" fill="#C1D1F7"/>
<path d="M53.5594 64.0574V62.2245L52.1795 60.1701C51.5564 59.2428 51.1146 58.1919 50.8802 57.0798C50.6458 55.9677 50.6235 54.8168 50.8148 53.6954C50.9771 52.7431 51.1316 52.4101 52.0445 49.8203C52.2861 49.1343 52.41 48.4077 52.4101 47.6751V42.0626H53.5594C54.3214 42.0626 55.0522 42.3844 55.591 42.9573C56.1298 43.5302 56.4325 44.3072 56.4325 45.1174V53.06" fill="black"/>
<path d="M54.7086 63.4464L53.5594 63.4465L53.5594 62.2245L52.1795 60.1701C51.416 59.0333 50.927 57.7143 50.7557 56.3293C50.5843 54.9442 50.7359 53.5357 51.1969 52.2276L52.0445 49.8242C52.2866 49.1369 52.4104 48.409 52.4101 47.6751V42.0626C53.596 42.0626 53.7583 42.0435 54.134 42.1237V47.6751C54.1338 48.4077 54.01 49.1343 53.7684 49.8203L52.9208 52.2237C52.4591 53.5324 52.3072 54.9417 52.4785 56.3274C52.6499 57.7132 53.1392 59.0329 53.9034 60.1701L54.5348 60.8223C54.5899 60.8793 54.6336 60.9475 54.6635 61.0228C54.6933 61.0981 54.7087 61.179 54.7086 61.2607V63.4464Z" fill="black"/>
<path d="M67.8532 51.1691L69.5641 47.9867C69.6014 47.9169 69.6513 47.8557 69.7109 47.8064C69.7704 47.7571 69.8385 47.7208 69.9113 47.6995C69.9841 47.6783 70.0601 47.6724 70.135 47.6824C70.2099 47.6923 70.2822 47.7179 70.3478 47.7576L72.3432 48.9703C72.4089 49.01 72.4666 49.063 72.513 49.1264C72.5594 49.1898 72.5936 49.2623 72.6136 49.3398C72.6336 49.4173 72.639 49.4982 72.6296 49.5779C72.6202 49.6576 72.5961 49.7345 72.5586 49.8043L70.8477 52.9867C70.8104 53.0565 70.7605 53.1179 70.7009 53.1672C70.6412 53.2166 70.5731 53.2529 70.5002 53.2742C70.4273 53.2955 70.3513 53.3013 70.2763 53.2913C70.2013 53.2812 70.129 53.2556 70.0633 53.2158L68.0687 52.003C68.003 51.9634 67.9452 51.9103 67.8988 51.8469C67.8524 51.7835 67.8183 51.711 67.7982 51.6336C67.7782 51.5561 67.7728 51.4752 67.7822 51.3955C67.7916 51.3158 67.8157 51.2388 67.8532 51.1691ZM70.2767 49.1231L69.136 51.2454L70.1337 51.8518L71.2744 49.7302L70.2767 49.1231ZM50.6582 52.0091L51.5065 49.6057C51.7245 48.9885 51.836 48.3344 51.8355 47.6751V42.0626C51.8355 41.9005 51.896 41.7451 52.0038 41.6306C52.1116 41.516 52.2577 41.4516 52.4101 41.4516H53.5594C54.4735 41.4526 55.3499 41.8392 55.9962 42.5264C56.6426 43.2137 57.0062 44.1455 57.0071 45.1174V53.06C57.0071 53.222 56.9466 53.3774 56.8388 53.492C56.7311 53.6066 56.5849 53.671 56.4325 53.671C56.2801 53.671 56.1339 53.6066 56.0262 53.492C55.9184 53.3774 55.8579 53.222 55.8579 53.06V45.1174C55.8579 44.4693 55.6157 43.8477 55.1847 43.3893C54.7536 42.931 54.169 42.6735 53.5594 42.6735H52.9847V47.6751C52.985 48.481 52.8488 49.2804 52.5825 50.0349L51.7349 52.4383C51.3056 53.653 51.1642 54.9614 51.3233 56.248C51.4824 57.5345 51.9371 58.7596 52.6471 59.815L54.027 61.8694C54.0966 61.973 54.134 62.0972 54.134 62.2245V64.0574C54.134 64.2195 54.0735 64.3749 53.9657 64.4894C53.8579 64.604 53.7118 64.6684 53.5594 64.6684C53.407 64.6684 53.2608 64.604 53.153 64.4894C53.0453 64.3749 52.9847 64.2195 52.9847 64.0574L52.9847 62.42L51.7119 60.5253C50.8923 59.3068 50.3674 57.8925 50.1836 56.4073C49.9998 54.922 50.1628 53.4115 50.6582 52.0091Z" fill="#D9D9D9"/>
</svg>
