<svg width="80" height="80" viewBox="0 0 80 80" fill="none" xmlns="http://www.w3.org/2000/svg">
<path d="M61.6938 41.1569C61.3688 41.1569 61.0844 40.9212 61.0112 40.6044C60.4669 37.9719 59.4431 35.5019 57.9725 33.2513C57.7938 32.975 57.8262 32.6175 58.0619 32.3819L61.1006 29.3431L55.6569 23.8994L52.6181 26.9381C52.3825 27.1737 52.025 27.2063 51.7487 27.0275C49.5062 25.5487 47.0281 24.5331 44.3956 23.9806C44.0788 23.9156 43.8431 23.6394 43.8431 23.3063V19H36.1488V23.3063C36.1488 23.6313 35.9131 23.9075 35.5963 23.9806C32.9638 24.5331 30.4937 25.5569 28.2431 27.0275C27.9669 27.2063 27.6094 27.1656 27.3737 26.9381L24.335 23.8994L18.8913 29.3431L21.93 32.3819C22.1656 32.6175 22.1981 32.975 22.0194 33.2513C20.5406 35.4938 19.525 37.9719 18.9806 40.6044C18.9156 40.9212 18.6312 41.1569 18.2981 41.1569H14V48.8513H18.3063C18.6313 48.8513 18.9156 49.0787 18.9887 49.4037C19.5331 52.0362 20.5569 54.5063 22.0275 56.7569C22.2063 57.0331 22.1737 57.3906 21.9381 57.6181L18.8994 60.6569L24.3431 66.1087L27.3819 63.0619C27.6175 62.8344 27.975 62.8019 28.2513 62.9806C30.4938 64.4594 32.9719 65.475 35.6044 66.0194C35.9212 66.0844 36.1569 66.3687 36.1569 66.7019V71H43.8513V66.6938C43.8513 66.3688 44.0869 66.0844 44.4037 66.0112C47.0362 65.4669 49.5063 64.4431 51.7569 62.9725C52.0331 62.7856 52.3906 62.8263 52.6263 63.0537L55.665 66.1006L61.1087 60.6488L58.07 57.61C57.8344 57.3825 57.8019 57.025 57.9806 56.7487C59.4594 54.5062 60.475 52.0281 61.0194 49.3956C61.0844 49.0706 61.3687 48.8431 61.7019 48.8431H66V41.1488H61.6938V41.1569ZM52.0088 57.0819C51.9762 57.1306 51.9356 57.1712 51.8706 57.2038C51.8706 57.2038 51.8706 57.2038 51.8625 57.2119C50.7981 58.26 49.5875 59.1619 48.2713 59.885C48.2631 59.885 48.255 59.8931 48.2469 59.9012C48.2144 59.9256 48.1819 59.95 48.1413 59.9662C48.1331 59.9662 48.1331 59.9662 48.1331 59.9662C45.7119 61.2906 42.9331 62.0462 39.9919 62.0462C37.14 62.0462 34.4425 61.3394 32.0781 60.0881C32.07 60.0881 32.0537 60.0881 32.0456 60.08C32.0131 60.0638 31.9806 60.0475 31.9563 60.0231C30.5506 59.2756 29.2669 58.3331 28.1375 57.22C28.0725 57.1875 28.0237 57.1388 27.9831 57.0737C24.8712 53.9863 22.9456 49.7044 22.9456 44.9919C22.9456 35.5912 30.5994 27.9456 39.9919 27.9456C49.3844 27.9456 57.0381 35.5912 57.0381 44.9919C57.0462 49.7125 55.1206 53.9944 52.0088 57.0819Z" fill="black"/>
<path d="M40 28.7744C31.0544 28.7744 23.7825 36.0544 23.7825 45C23.7825 49.2169 25.3912 53.0437 28.0319 55.9362C28.3406 53.7669 28.9256 52.0606 29.8437 50.6387C30.185 50.1025 30.705 49.6637 31.3144 49.4281C31.6962 49.2575 32.0781 49.1194 32.4437 48.9731C32.6306 48.9 32.8012 48.8269 32.98 48.7619V48.2012C32.98 47.9656 33.1669 47.7787 33.4025 47.7787H35.4175C36.2219 47.34 36.6362 46.8444 36.8394 46.0319C35.1737 44.9594 34.0687 43.0825 34.0687 40.9619V40.0519H33.565C33.3375 40.0519 33.1506 39.865 33.1506 39.6375V37.7119C33.1506 37.4925 33.3212 37.3219 33.5244 37.2975C33.76 35.055 34.9137 33.0725 36.685 31.9269L36.6444 31.74C36.6037 31.545 36.6444 31.3337 36.75 31.1712C36.8637 31.0006 37.0344 30.8869 37.2294 30.8544C39.0331 30.4969 40.8694 30.4969 42.6975 30.8544C43.1037 30.9356 43.3556 31.3175 43.2987 31.7156L43.2744 31.8862C45.0456 33.0319 46.2481 35.055 46.4837 37.2975C46.695 37.3138 46.8575 37.4925 46.8575 37.7119V39.6375C46.8575 39.865 46.6706 40.0519 46.4431 40.0519H46.1019V40.9619C46.1019 43.1394 44.94 45.0569 43.1931 46.1131C43.4125 46.885 43.8106 47.3563 44.5825 47.7706H46.6056C46.8412 47.7706 47.0281 47.9575 47.0281 48.1931V48.7537L47.54 48.9569C48.0031 49.1356 48.4987 49.3225 49.0106 49.5419C49.3844 49.6963 49.7012 49.9481 49.9206 50.2569C50.9687 51.7438 51.6269 53.5475 51.9844 55.9119C54.6169 53.0194 56.2256 49.1925 56.2256 44.9837C56.2175 36.0625 48.9456 28.7744 40 28.7744Z" fill="black"/>
<path d="M48.6856 50.33C48.1738 50.1106 47.6944 49.9237 47.2394 49.7531C47.1744 49.7287 47.0931 49.6963 47.0281 49.6719V51.6463H47.215C47.8731 51.6463 48.4013 52.2881 48.4013 53.1169V58.8937C49.4331 58.2681 50.3838 57.5288 51.2531 56.6919C50.9444 54.1406 50.2944 52.2556 49.2381 50.7687C49.1081 50.5656 48.9213 50.4194 48.6856 50.33Z" fill="black"/>
<path d="M47.2069 52.4669H32.98C32.8337 52.4669 32.6306 52.7187 32.6306 53.1087V59.4462C34.8406 60.5756 37.3512 61.2256 40.0081 61.2256C42.7381 61.2256 45.3137 60.5431 47.5806 59.3487V53.1087C47.5725 52.7431 47.3775 52.4669 47.2069 52.4669ZM35.2225 56.8869C34.4669 56.8869 33.8575 56.2775 33.8575 55.5219C33.8575 54.7662 34.4669 54.1569 35.2225 54.1569C35.9781 54.1569 36.5875 54.7662 36.5875 55.5219C36.5875 56.2775 35.9781 56.8869 35.2225 56.8869ZM44.9725 56.8869C44.2169 56.8869 43.6075 56.2775 43.6075 55.5219C43.6075 54.7662 44.2169 54.1569 44.9725 54.1569C45.7281 54.1569 46.3456 54.7662 46.3456 55.5219C46.3456 56.2775 45.7281 56.8869 44.9725 56.8869Z" fill="black"/>
<path d="M32.98 49.6638C32.9069 49.6881 32.8175 49.7206 32.7362 49.7531C32.3869 49.8913 32.005 50.0375 31.6231 50.2C31.1681 50.3788 30.7944 50.6956 30.5425 51.0856C29.6 52.54 29.0394 54.3194 28.7631 56.6838C29.6731 57.5613 30.6969 58.3412 31.8019 58.9912V53.1087C31.8019 52.2881 32.3137 51.6381 32.9719 51.6381V49.6638H32.98ZM35.9294 51.6463H44.0787V48.4531C43.2337 47.9738 42.73 47.3806 42.4537 46.5275C41.7225 46.8363 40.9262 47.015 40.0894 47.015C39.1956 47.015 38.3425 46.82 37.5869 46.4625C37.3187 47.3481 36.8069 47.9575 35.9375 48.4613V51.6463H35.9294ZM34.995 42.0425C35.0275 42.2131 35.0762 42.3756 35.1331 42.5381C35.1819 42.7087 35.2387 42.8631 35.3119 43.0256C35.3931 43.2288 35.4987 43.4075 35.6044 43.5944C35.6612 43.7 35.7262 43.8138 35.8075 43.9113C35.9212 44.0819 36.0512 44.2444 36.1894 44.4069C36.3437 44.5856 36.5062 44.7481 36.6931 44.9106C36.8475 45.0488 37.0019 45.1625 37.1644 45.26C37.2456 45.3169 37.3269 45.3738 37.4081 45.4306C37.4244 45.4388 37.4487 45.455 37.465 45.4631C37.4894 45.4713 37.5056 45.4875 37.5219 45.4956C38.2775 45.9263 39.155 46.1781 40.0894 46.1781C40.9587 46.1781 41.7794 45.9588 42.5025 45.585C42.5187 45.5769 42.535 45.5606 42.5594 45.5525C43.3719 45.1056 44.0544 44.4637 44.5256 43.6756C44.6394 43.4888 44.745 43.2938 44.8344 43.0906C44.8912 42.9525 44.9481 42.8144 45.005 42.6681C45.0131 42.6438 45.0212 42.6194 45.0212 42.595C45.0619 42.4975 45.0862 42.3838 45.1106 42.2781C45.1269 42.2131 45.1512 42.14 45.1594 42.075C45.1837 41.9775 45.2 41.88 45.2162 41.7825C45.2569 41.5225 45.2731 41.2544 45.2731 40.9862V40.0763H34.8894V40.9862C34.8894 41.1488 34.8975 41.3031 34.9137 41.4656C34.93 41.6606 34.9544 41.8556 34.995 42.0425ZM45.655 37.3219C45.4275 35.4856 44.5012 33.8281 43.12 32.8125L42.405 37.3219H45.655ZM37.4569 31.6669L38.6269 37.3138H41.5681L42.3887 32.0975L42.405 31.9919L42.4537 31.6669C40.7881 31.35 39.1062 31.3419 37.4569 31.6669ZM34.345 37.3219H37.7981L36.8556 32.8206C35.4744 33.8444 34.5725 35.4775 34.345 37.3219Z" fill="black"/>
<path d="M46.0288 38.1425H33.9631V39.2475H46.0288V38.1425Z" fill="black"/>
<path d="M35.1088 48.6237H33.8088V51.6381H35.1088V48.6237Z" fill="black"/>
<path d="M46.1913 48.6237H44.8913V51.6381H46.1913V48.6237Z" fill="black"/>
<path d="M35.2225 56.0662C35.5232 56.0662 35.7669 55.8225 35.7669 55.5219C35.7669 55.2212 35.5232 54.9775 35.2225 54.9775C34.9219 54.9775 34.6781 55.2212 34.6781 55.5219C34.6781 55.8225 34.9219 56.0662 35.2225 56.0662Z" fill="black"/>
<path d="M44.9725 56.0662C45.2732 56.0662 45.5169 55.8225 45.5169 55.5219C45.5169 55.2212 45.2732 54.9775 44.9725 54.9775C44.6719 54.9775 44.4281 55.2212 44.4281 55.5219C44.4281 55.8225 44.6719 56.0662 44.9725 56.0662Z" fill="black"/>
</svg>
