<svg width="19" height="20" viewBox="0 0 19 20" fill="none" xmlns="http://www.w3.org/2000/svg">
<path d="M5.73565 15.5333C4.73353 15.5333 3.92272 16.3533 3.92272 17.3554C3.92272 18.3575 4.73353 19.1774 5.73565 19.1774C6.73777 19.1774 7.55769 18.3575 7.55769 17.3554C7.55769 16.3533 6.73777 15.5333 5.73565 15.5333ZM0.269531 1.86805C0.269531 2.36911 0.67949 2.77907 1.18055 2.77907H2.09157L5.37124 9.69371L4.14136 11.9166C3.47632 13.1374 4.3509 14.6223 5.73565 14.6223H15.7569C16.2579 14.6223 16.6679 14.2124 16.6679 13.7113C16.6679 13.2102 16.2579 12.8003 15.7569 12.8003H5.73565L6.73777 10.9782H13.5249C14.2081 10.9782 14.8094 10.6047 15.1191 10.0399L18.3806 4.12738C18.7177 3.52611 18.2804 2.77907 17.588 2.77907H4.10492L3.49454 1.47631C3.34878 1.15746 3.02081 0.957031 2.67462 0.957031H1.18055C0.67949 0.957031 0.269531 1.36699 0.269531 1.86805ZM14.8458 15.5333C13.8437 15.5333 13.0329 16.3533 13.0329 17.3554C13.0329 18.3575 13.8437 19.1774 14.8458 19.1774C15.848 19.1774 16.6679 18.3575 16.6679 17.3554C16.6679 16.3533 15.848 15.5333 14.8458 15.5333Z" fill="black"/>
</svg>
