<svg width="23" height="23" viewBox="0 0 23 23" fill="none" xmlns="http://www.w3.org/2000/svg">
<path d="M15.7625 3.24219C14.1773 3.24219 12.6559 3.98011 11.6629 5.14622C10.6699 3.98011 9.14852 3.24219 7.56334 3.24219C4.7574 3.24219 2.55273 5.44685 2.55273 8.25279C2.55273 11.6964 5.6502 14.5024 10.342 18.766L11.6629 19.9594L12.9839 18.7568C17.6757 14.5024 20.7731 11.6964 20.7731 8.25279C20.7731 5.44685 18.5685 3.24219 15.7625 3.24219ZM11.754 17.4085L11.6629 17.4996L11.5718 17.4085C7.23537 13.482 4.37477 10.8856 4.37477 8.25279C4.37477 6.43076 5.7413 5.06423 7.56334 5.06423C8.96631 5.06423 10.3328 5.96614 10.8157 7.21423H12.5193C12.993 5.96614 14.3595 5.06423 15.7625 5.06423C17.5846 5.06423 18.9511 6.43076 18.9511 8.25279C18.9511 10.8856 16.0905 13.482 11.754 17.4085Z" fill="#FF0000"/>
</svg>
